<?xml version="1.0" encoding="UTF-8"?>
<svg version="1.1" xmlns="http://www.w3.org/2000/svg" width="487" height="487">
<path d="M0 0 C160.71 0 321.42 0 487 0 C487 160.71 487 321.42 487 487 C326.29 487 165.58 487 0 487 C0 326.29 0 165.58 0 0 Z " fill="#000000" transform="translate(0,0)"/>
<path d="M0 0 C2.04693547 0.00747208 4.09387815 0.01316043 6.14082336 0.01715088 C11.49535308 0.03233107 16.84944007 0.07154642 22.20379639 0.1159668 C27.68072523 0.15708473 33.1577265 0.17519701 38.63476562 0.1953125 C49.356964 0.23804872 60.07883563 0.30620664 70.80078125 0.390625 C69.55845415 3.07313099 68.31163979 5.75339962 67.06225586 8.43261719 C66.54249302 9.55674515 66.54249302 9.55674515 66.01222992 10.70358276 C62.89585975 17.37101842 59.30579441 23.66840732 55.4284668 29.921875 C54.35720588 31.65042802 53.29980575 33.38688715 52.24414062 35.125 C41.44241445 52.80541577 28.94638621 68.97157542 15.36425781 84.58886719 C13.76099045 86.43648011 12.1667676 88.29158108 10.57421875 90.1484375 C4.80136543 96.86619035 -1.06097007 103.47795857 -7.0949707 109.96240234 C-10.29545435 113.40215948 -13.42485195 116.88972194 -16.5 120.44140625 C-20.01329286 124.47159737 -23.61731915 128.42149301 -27.19921875 132.390625 C-28.28203125 133.5971875 -28.28203125 133.5971875 -29.38671875 134.828125 C-34.81427807 140.87597681 -40.29431232 146.87439997 -45.79199219 152.85839844 C-48.09630429 155.36739614 -50.39761103 157.87914672 -52.69921875 160.390625 C-53.61718014 161.39193383 -54.53514889 162.39323591 -55.453125 163.39453125 C-57.27405706 165.38094382 -59.09431731 167.36796887 -60.9140625 169.35546875 C-61.82160714 170.34636099 -62.72915922 171.3372464 -63.63671875 172.328125 C-64.08281494 172.81547119 -64.52891113 173.30281738 -64.98852539 173.80493164 C-67.45607623 176.49812742 -69.93203535 179.18313091 -72.41796875 181.859375 C-72.95494385 182.43824463 -73.49191895 183.01711426 -74.04516602 183.61352539 C-75.07543761 184.72344983 -76.10708758 185.83209706 -77.14038086 186.93920898 C-79.96933032 189.98840788 -82.64313113 193.10940614 -85.19921875 196.390625 C-84.46058594 196.34421875 -83.72195313 196.2978125 -82.9609375 196.25 C-70.14685817 195.79409883 -62.03348933 199.64483601 -52.67578125 208.1171875 C-45.13434854 215.14689562 -37.65109196 222.32421611 -30.94140625 230.16015625 C-26.31103529 235.51220231 -21.23517872 240.42554651 -16.19921875 245.390625 C-10.60176693 250.90929231 -5.07793593 256.42489551 0.03515625 262.40234375 C3.59858924 266.41514772 7.47747741 270.1277209 11.30078125 273.890625 C16.44155919 278.95019002 21.43978373 284.03200942 26.13867188 289.50585938 C28.88009743 292.61452643 31.84035025 295.49247573 34.80078125 298.390625 C42.11649298 305.62252177 42.11649298 305.62252177 45.23828125 309.328125 C48.69116721 313.41683651 52.50155323 317.12797198 56.30078125 320.890625 C64.23329396 328.74677176 64.23329396 328.74677176 67.36328125 332.453125 C69.58832217 335.05201641 71.88023074 337.51646017 74.32421875 339.91015625 C75.28606079 340.86039673 75.28606079 340.86039673 76.26733398 341.82983398 C77.56689817 343.10621754 78.87101142 344.37798815 80.17993164 345.64477539 C80.77539795 346.22864014 81.37086426 346.81250488 81.984375 347.4140625 C82.52634521 347.93919434 83.06831543 348.46432617 83.62670898 349.00537109 C84.80078125 350.390625 84.80078125 350.390625 84.80078125 352.390625 C68.15398658 352.4374358 51.5072134 352.47265822 34.86036873 352.49424934 C27.13019734 352.50454287 19.40006694 352.51856625 11.66992188 352.54150391 C4.92892009 352.56149687 -1.81205198 352.5743554 -8.55308259 352.57880199 C-12.1193072 352.58139941 -15.68544686 352.58746397 -19.25164413 352.60208511 C-23.24185638 352.61831058 -27.2319228 352.61860091 -31.22216797 352.61767578 C-32.39246048 352.62486633 -33.56275299 352.63205688 -34.76850891 352.63946533 C-51.84720025 352.59674689 -63.73903822 347.42122933 -76.1015625 335.56640625 C-77.21348836 334.44439489 -78.31786621 333.31482875 -79.4128418 332.17626953 C-81.04937118 330.54041114 -82.73037371 329.06579862 -84.50390625 327.58203125 C-91.94123608 321.12069085 -98.71961359 313.92271282 -105.64501953 306.92431641 C-114.78717292 297.64232935 -114.78717292 297.64232935 -124.44580078 288.90820312 C-127.74085938 286.05633954 -130.80504284 282.96912719 -133.88671875 279.890625 C-134.84288086 278.95283203 -134.84288086 278.95283203 -135.81835938 277.99609375 C-142.28157932 271.55288377 -148.42131218 264.95023858 -148.47337341 255.35240173 C-148.48334854 254.361586 -148.49332367 253.37077026 -148.50360107 252.34992981 C-148.50426575 251.27402084 -148.50493042 250.19811188 -148.50561523 249.08959961 C-148.51810051 247.37640533 -148.51810051 247.37640533 -148.53083801 245.62860107 C-148.55494545 241.8500223 -148.56371272 238.0716163 -148.5703125 234.29296875 C-148.57928071 231.66085255 -148.5884026 229.02873686 -148.59767151 226.3966217 C-148.6150295 220.87451537 -148.62189522 215.35245287 -148.62475586 209.83032227 C-148.62838184 203.47334083 -148.65821152 197.11684495 -148.70016044 190.76001161 C-148.73923158 184.62134213 -148.75035235 178.48290599 -148.75148201 172.34411812 C-148.75567386 169.74434344 -148.76806622 167.14456797 -148.78899956 164.54487419 C-148.81603869 160.89529881 -148.8110489 157.24703854 -148.79858398 153.59741211 C-148.81341827 152.53567276 -148.82825256 151.47393341 -148.84353638 150.38002014 C-148.68600132 134.07485781 -139.05520527 122.3752354 -128.46484375 110.90234375 C-126.21204554 108.40484504 -124.10874467 105.83217416 -122.01171875 103.203125 C-117.70880783 97.87535263 -113.07232797 92.92577758 -108.36816406 87.95629883 C-104.05952513 83.38027152 -100.07268175 78.65683933 -96.1484375 73.74609375 C-93.87385522 70.99745023 -91.42396979 68.52571505 -88.86328125 66.046875 C-86.51304295 63.70767069 -84.37912826 61.2017813 -82.21484375 58.69140625 C-79.75441725 55.88289615 -77.22952256 53.13595547 -74.69921875 50.390625 C-71.71908045 47.1556163 -68.75606121 43.91237359 -65.88671875 40.578125 C-61.83157177 35.89457752 -57.56306022 31.40928578 -53.32421875 26.89282227 C-50.28510971 23.64831306 -47.28101716 20.39117678 -44.38671875 17.015625 C-43.32679125 15.80503449 -42.26421175 14.59676165 -41.19921875 13.390625 C-40.19568359 12.23433594 -40.19568359 12.23433594 -39.171875 11.0546875 C-38.07166016 9.85972656 -38.07166016 9.85972656 -36.94921875 8.640625 C-36.3046875 7.92390625 -35.66015625 7.2071875 -34.99609375 6.46875 C-24.57977724 -1.27074774 -12.32432183 -0.13275354 0 0 Z " fill="#02D6FA" transform="translate(353.19921875,72.609375)"/>
<path d="M0 0 C1.02500107 -0.00021904 1.02500107 -0.00021904 2.07070923 -0.0004425 C4.32158623 0.00025224 6.57237971 0.00802407 8.82324219 0.01586914 C10.38694209 0.01773488 11.95064257 0.01915805 13.51434326 0.02015686 C17.62428408 0.02396978 21.73418939 0.03378959 25.84411621 0.04486084 C30.04027832 0.05510132 34.23644618 0.05966013 38.43261719 0.06469727 C46.66180012 0.07541297 54.89095423 0.09247467 63.12011719 0.11352539 C63.18882279 33.19315296 63.24166601 66.27276197 63.27331318 99.35244464 C63.27706518 103.2601097 63.28094816 107.16777461 63.28491211 111.07543945 C63.28569904 111.8533668 63.28648597 112.63129416 63.28729675 113.43279506 C63.30034141 126.01962156 63.32399007 138.60640685 63.35157558 151.19320892 C63.37965594 164.11381642 63.39629901 177.03440238 63.40238267 189.95503914 C63.40649366 197.92416715 63.41946571 205.89317865 63.44386659 213.86227079 C63.46163794 219.97875982 63.46347617 226.09516051 63.45944023 232.21167183 C63.46026464 234.71661788 63.46621968 237.22156839 63.47773361 239.72648811 C63.49270477 243.1519566 63.48905353 246.57693046 63.48088074 250.00241089 C63.48961926 250.98881998 63.49835779 251.97522907 63.50736111 252.99152935 C63.4294289 265.11328477 59.75417249 273.73252489 51.18261719 282.27563477 C50.58449219 282.86151367 49.98636719 283.44739258 49.37011719 284.05102539 C48.78746094 284.63303711 48.20480469 285.21504883 47.60449219 285.81469727 C44.57860673 288.81072202 41.49087611 291.68639344 38.26074219 294.46118164 C33.47121993 298.60542631 29.06061673 303.10174977 24.62011719 307.61352539 C19.5706259 312.7440679 14.49896689 317.73073417 9.03613281 322.42016602 C5.7435686 325.33010809 2.69541252 328.47757572 -0.37988281 331.61352539 C-5.38123309 336.6636302 -10.4172919 341.55929242 -15.87988281 346.11352539 C-17.19252421 347.25919674 -18.50502818 348.40502557 -19.81738281 349.55102539 C-22.87988281 352.11352539 -22.87988281 352.11352539 -23.87988281 352.11352539 C-23.99433056 309.33494805 -24.0824329 266.55638838 -24.13520946 223.77768827 C-24.14146298 218.72711745 -24.1479346 213.67654693 -24.15454102 208.62597656 C-24.15650834 207.11776199 -24.15650834 207.11776199 -24.15851542 205.57907843 C-24.18027115 189.29916475 -24.21969362 173.01933936 -24.26564679 156.73947806 C-24.31240672 140.03446679 -24.34017724 123.32950176 -24.35032529 106.62442774 C-24.3571854 96.31671304 -24.37885129 86.0092479 -24.41946515 75.70161002 C-24.44589776 68.63298501 -24.45388262 61.56448899 -24.4473897 54.49581815 C-24.44418761 50.41767039 -24.44909119 46.3399587 -24.47591019 42.2618885 C-24.50030442 38.52518242 -24.50143115 34.78920418 -24.48437729 31.05246406 C-24.48127591 29.06679725 -24.5027858 27.08113856 -24.52528936 25.09559685 C-24.4637248 17.72519896 -23.69962945 11.93224939 -18.87988281 6.11352539 C-12.76423512 1.20255442 -7.79391263 -0.01401783 0 0 Z " fill="#00D0F9" transform="translate(132.8798828125,72.886474609375)"/>
<path d="M0 0 C3.1484375 0.76953125 3.1484375 0.76953125 6.125 1.8125 C7.04539062 2.02261719 7.96578125 2.23273438 8.9140625 2.44921875 C24.3704087 6.65851188 38.300727 23.80761707 48.3828125 35.58203125 C53.01318346 40.93407731 58.08904003 45.84742151 63.125 50.8125 C68.72245182 56.33116731 74.24628282 61.84677051 79.359375 67.82421875 C82.92280799 71.83702272 86.80169616 75.5495959 90.625 79.3125 C95.76577794 84.37206502 100.76400248 89.45388442 105.46289062 94.92773438 C108.20431618 98.03640143 111.164569 100.91435073 114.125 103.8125 C121.44071173 111.04439677 121.44071173 111.04439677 124.5625 114.75 C128.01538596 118.83871151 131.82577198 122.54984698 135.625 126.3125 C143.55751271 134.16864676 143.55751271 134.16864676 146.6875 137.875 C148.91254092 140.47389141 151.20444949 142.93833517 153.6484375 145.33203125 C154.28966553 145.9655249 154.93089355 146.59901855 155.59155273 147.25170898 C156.89111692 148.52809254 158.19523017 149.79986315 159.50415039 151.06665039 C160.0996167 151.65051514 160.69508301 152.23437988 161.30859375 152.8359375 C161.85056396 153.36106934 162.39253418 153.88620117 162.95092773 154.42724609 C164.125 155.8125 164.125 155.8125 164.125 157.8125 C147.47820533 157.8593108 130.83143215 157.89453322 114.18458748 157.91612434 C106.45441609 157.92641787 98.72428569 157.94044125 90.99414062 157.96337891 C84.25313884 157.98337187 77.51216677 157.9962304 70.77113616 158.00067699 C67.20491155 158.00327441 63.63877189 158.00933897 60.07257462 158.02396011 C56.08236237 158.04018558 52.09229595 158.04047591 48.10205078 158.03955078 C46.93175827 158.04674133 45.76146576 158.05393188 44.55570984 158.06134033 C27.4770185 158.01862189 15.58518053 152.84310433 3.22265625 140.98828125 C2.11073039 139.86626989 1.00635254 138.73670375 -0.08862305 137.59814453 C-1.72515243 135.96228614 -3.40615496 134.48767362 -5.1796875 133.00390625 C-12.61701733 126.54256585 -19.39539484 119.34458782 -26.32080078 112.34619141 C-35.46295417 103.06420435 -35.46295417 103.06420435 -45.12158203 94.33007812 C-48.41664063 91.47821454 -51.48082409 88.39100219 -54.5625 85.3125 C-55.19994141 84.68730469 -55.83738281 84.06210937 -56.49414062 83.41796875 C-62.39657828 77.53380489 -67.01695697 72.08923715 -68.875 63.8125 C-67.98167969 63.42578125 -67.98167969 63.42578125 -67.0703125 63.03125 C-64.6802563 61.70438606 -63.46996888 60.42140657 -61.75 58.3125 C-58.9343684 54.9772454 -55.98521949 51.87545172 -52.875 48.8125 C-49.92316975 45.89623397 -47.07111141 42.96644165 -44.375 39.8125 C-40.96189328 35.81980912 -37.26191847 32.16292061 -33.5 28.5 C-29.45312829 24.3567742 -25.71591564 19.94542614 -21.93261719 15.56201172 C-7.86100076 -0.48896177 -7.86100076 -0.48896177 0 0 Z " fill="#9629FD" transform="translate(273.875,267.1875)"/>
<path d="M0 0 C23.1 0 46.2 0 70 0 C70.06616879 33.07964577 70.12154881 66.15922719 70.15319599 99.23891925 C70.15694799 103.1465843 70.16083097 107.05424922 70.16479492 110.96191406 C70.16558185 111.73984141 70.16636878 112.51776876 70.16717956 113.31926967 C70.18022422 125.90609617 70.20387288 138.49288146 70.23145839 151.07968353 C70.25953875 164.00029103 70.27618182 176.92087699 70.28226548 189.84151375 C70.28637647 197.81064176 70.29934853 205.77965326 70.3237494 213.7487454 C70.34152075 219.86523443 70.34335898 225.98163512 70.33932304 232.09814644 C70.34014745 234.60309249 70.34610249 237.108043 70.35761642 239.61296272 C70.37258758 243.03843121 70.36893634 246.46340507 70.36076355 249.8888855 C70.36950207 250.87529459 70.3782406 251.86170368 70.38724393 252.87800395 C70.30931171 264.99975938 66.6340553 273.6189995 58.0625 282.16210938 C57.464375 282.74798828 56.86625 283.33386719 56.25 283.9375 C55.66734375 284.51951172 55.0846875 285.10152344 54.484375 285.70117188 C51.45848954 288.69719662 48.37075892 291.57286805 45.140625 294.34765625 C40.35110275 298.49190092 35.94049954 302.98822438 31.5 307.5 C26.45050871 312.63054251 21.37884971 317.61720878 15.91601562 322.30664062 C12.62345141 325.2165827 9.57529533 328.36405033 6.5 331.5 C1.49864972 336.5501048 -3.53740909 341.44576703 -9 346 C-10.31264139 347.14567135 -11.62514537 348.29150018 -12.9375 349.4375 C-16 352 -16 352 -17 352 C-17.11444774 309.22142266 -17.20255009 266.44286299 -17.25532665 223.66416288 C-17.26158017 218.61359206 -17.26805178 213.56302154 -17.2746582 208.51245117 C-17.27662553 207.0042366 -17.27662553 207.0042366 -17.2786326 205.46555304 C-17.30038834 189.18563936 -17.33981081 172.90581397 -17.38576398 156.62595267 C-17.43252391 139.9209414 -17.46029442 123.21597637 -17.47044247 106.51090235 C-17.47730258 96.20318765 -17.49896848 85.89572251 -17.53958233 75.58808463 C-17.56601495 68.51945962 -17.57399981 61.4509636 -17.56750689 54.38229275 C-17.5643048 50.304145 -17.56920838 46.22643331 -17.59602737 42.14836311 C-17.6204216 38.41165703 -17.62154834 34.67567879 -17.60449447 30.93893867 C-17.60139309 28.95327186 -17.62290298 26.96761317 -17.64540654 24.98207146 C-17.58346811 17.56691278 -16.75642846 11.89797364 -12 6 C-10.05353465 4.320092 -8.28501338 3.22221646 -6 2 C-5.34 2.33 -4.68 2.66 -4 3 C-5.2065625 4.0828125 -5.2065625 4.0828125 -6.4375 5.1875 C-9.14152087 8.15532779 -9.29110581 9.25298784 -10 13 C-11.98 13.99 -11.98 13.99 -14 15 C-14 75.39 -14 135.78 -14 198 C-7.565 192.555 -7.565 192.555 -1 187 C-0.34 187 0.32 187 1 187 C1.20367187 186.43925781 1.40734375 185.87851562 1.6171875 185.30078125 C3.51412435 182.14457841 6.19686302 180.31682899 9.125 178.1875 C13.79240499 174.71261085 18.24385017 171.14597222 22.51171875 167.1796875 C24 166 24 166 26 166 C26.33 165.01 26.66 164.02 27 163 C28.49609375 161.4921875 28.49609375 161.4921875 30.4375 159.875 C33.67276433 157.13168105 36.85588199 154.34768648 40 151.5 C57.18994889 136 57.18994889 136 60 136 C60.26654325 135.4016462 60.53308651 134.80329241 60.80770683 134.18680668 C62.01962645 131.96400277 63.24447069 130.72747673 65.07669067 129.01109314 C69.31148491 124.1461665 68.8396034 119.00923702 68.77294922 112.82250977 C68.78357895 111.61204483 68.79420868 110.4015799 68.80516052 109.1544342 C68.82836889 105.85259632 68.82528467 102.55278495 68.81029272 99.25103498 C68.80088526 95.79428143 68.82538842 92.33776798 68.84622192 88.88108826 C68.88050932 82.34344111 68.8845076 75.80614402 68.87749684 69.26842493 C68.87035768 61.09095475 68.90387483 52.91371489 68.9375 44.73632812 C68.99726933 30.15740373 68.99576245 15.57928104 69 1 C46.23 1 23.46 1 0 1 C0 0.67 0 0.34 0 0 Z " fill="#06C8FC" transform="translate(126,73)"/>
<path d="M0 0 C3.109375 0.7421875 3.109375 0.7421875 6.125 1.8125 C7.67960937 2.24949219 7.67960937 2.24949219 9.265625 2.6953125 C14.22464997 4.24013965 17.25231779 5.33449538 20.125 9.8125 C18.990625 9.76609375 17.85625 9.7196875 16.6875 9.671875 C13.58731738 9.5796916 10.49583643 9.54600287 7.39453125 9.59375 C6.68143799 9.60470703 5.96834473 9.61566406 5.23364258 9.62695312 C-5.51022019 10.57234339 -13.45688037 21.80358657 -20.046875 29.5078125 C-25.21429177 35.45804216 -30.92670352 40.89418012 -36.55834961 46.39990234 C-38.0160594 47.82720826 -39.46731055 49.26084499 -40.91796875 50.6953125 C-42.20223755 51.95432373 -42.20223755 51.95432373 -43.51245117 53.23876953 C-47.60744447 57.69980284 -50.63373661 61.7967076 -51.125 67.9375 C-50.40367549 79.11802985 -44.54075683 84.97547266 -36.8203125 92.48828125 C-35.71432461 93.58559816 -34.60959844 94.68418807 -33.506073 95.78398132 C-30.61143592 98.66147609 -27.69882738 101.52009627 -24.78234863 104.37542725 C-22.40856389 106.7055601 -20.04788595 109.04872585 -17.68779182 111.39271259 C-14.86117963 114.19966743 -12.02919978 117.00117315 -9.1953125 119.80078125 C-8.65953709 120.33013086 -8.12376167 120.85948048 -7.57175064 121.40487099 C-6.04558127 122.90991487 -4.51591453 124.41130128 -2.98486328 125.91137695 C-2.11677032 126.76359329 -1.24867737 127.61580963 -0.35427856 128.49385071 C2.04752418 130.74004374 4.54771143 132.77295041 7.125 134.8125 C8.242265 136.03226638 9.32754906 137.28228219 10.375 138.5625 C15.82669011 144.92874379 21.99768108 150.40035019 29.125 154.8125 C30.61 155.8025 30.61 155.8025 32.125 156.8125 C18.95490542 155.95358079 8.68835119 146.72447121 -0.08862305 137.59814453 C-1.72515243 135.96228614 -3.40615496 134.48767362 -5.1796875 133.00390625 C-12.61701733 126.54256585 -19.39539484 119.34458782 -26.32080078 112.34619141 C-35.46295417 103.06420435 -35.46295417 103.06420435 -45.12158203 94.33007812 C-48.41664063 91.47821454 -51.48082409 88.39100219 -54.5625 85.3125 C-55.19994141 84.68730469 -55.83738281 84.06210937 -56.49414062 83.41796875 C-62.39657828 77.53380489 -67.01695697 72.08923715 -68.875 63.8125 C-67.98167969 63.42578125 -67.98167969 63.42578125 -67.0703125 63.03125 C-64.6802563 61.70438606 -63.46996888 60.42140657 -61.75 58.3125 C-58.9343684 54.9772454 -55.98521949 51.87545172 -52.875 48.8125 C-49.92316975 45.89623397 -47.07111141 42.96644165 -44.375 39.8125 C-40.96189328 35.81980912 -37.26191847 32.16292061 -33.5 28.5 C-29.45312829 24.3567742 -25.71591564 19.94542614 -21.93261719 15.56201172 C-7.86100076 -0.48896177 -7.86100076 -0.48896177 0 0 Z " fill="#0F38AF" transform="translate(273.875,267.1875)"/>
<path d="M0 0 C0.66 0.33 1.32 0.66 2 1 C0.7934375 2.0828125 0.7934375 2.0828125 -0.4375 3.1875 C-3.14152087 6.15532779 -3.29110581 7.25298784 -4 11 C-6.02734375 12.14453125 -6.02734375 12.14453125 -8 13 C-7.99962028 13.6566027 -7.99924056 14.3132054 -7.99884933 14.98970515 C-7.97644865 53.94549221 -7.95930203 92.90127845 -7.94893467 131.85707066 C-7.94768403 136.53939803 -7.9463897 141.22172538 -7.94506836 145.90405273 C-7.94467489 147.30224439 -7.94467489 147.30224439 -7.94427348 148.72868233 C-7.93992769 163.80172384 -7.93204614 178.87476152 -7.9228472 193.94780076 C-7.91348032 209.42565281 -7.90793796 224.90350285 -7.90591151 240.38135761 C-7.90454258 249.92428513 -7.90022619 259.46720181 -7.89208353 269.01012599 C-7.88677862 275.56295985 -7.8852042 282.11578814 -7.88649862 288.66862399 C-7.88713616 292.44356139 -7.88619108 296.21847992 -7.88079453 299.99341393 C-7.87496705 304.10011867 -7.87702747 308.20678384 -7.87974548 312.31349182 C-7.87683264 313.48766602 -7.8739198 314.66184021 -7.87091869 315.87159544 C-7.88587733 324.28736346 -8.35737728 332.61207301 -9 341 C-7.35 341 -5.7 341 -4 341 C-3.896875 340.4225 -3.79375 339.845 -3.6875 339.25 C-2.85319619 336.51955117 -2.06374816 334.99258443 0 333 C3.1875 332.75 3.1875 332.75 6 333 C6.2165625 332.13375 6.2165625 332.13375 6.4375 331.25 C6.8027043 329.78918279 7.17718315 328.33064145 7.5625 326.875 C8.07574321 324.99628047 8.07574321 324.99628047 8 323 C8.66 323 9.32 323 10 323 C10 323.66 10 324.32 10 325 C11.65 325 13.3 325 15 325 C15.4021875 323.9171875 15.4021875 323.9171875 15.8125 322.8125 C16.98982498 320.02409874 18.39145884 317.55904276 20 315 C20.99 315.33 21.98 315.66 23 316 C23.45375 315.34 23.9075 314.68 24.375 314 C24.91125 313.34 25.4475 312.68 26 312 C26.66 312 27.32 312 28 312 C28 311.34 28 310.68 28 310 C28.66 309.608125 29.32 309.21625 30 308.8125 C32.42601514 307.03516815 32.42601514 307.03516815 32.25 303.3125 C32.1675 302.219375 32.085 301.12625 32 300 C32.66 300 33.32 300 34 300 C34.66 300.99 35.32 301.98 36 303 C36.45375 302.34 36.9075 301.68 37.375 301 C37.91125 300.34 38.4475 299.68 39 299 C39.66 299 40.32 299 41 299 C41.33 298.01 41.66 297.02 42 296 C42.99 296 43.98 296 45 296 C45 295.34 45 294.68 45 294 C45.66 294 46.32 294 47 294 C47.2475 293.360625 47.495 292.72125 47.75 292.0625 C49 290 49 290 51.078125 289.37109375 C51.71234375 289.24863281 52.3465625 289.12617188 53 289 C48.16998067 294.81478056 42.98093733 300.16932653 37.625 305.5 C36.40683594 306.72396484 36.40683594 306.72396484 35.1640625 307.97265625 C30.87514175 312.25470373 26.50597571 316.3558398 21.91162109 320.30664062 C18.62330398 323.21951003 15.57447147 326.36489045 12.5 329.5 C7.49864972 334.5501048 2.46259091 339.44576703 -3 344 C-4.31264139 345.14567135 -5.62514537 346.29150018 -6.9375 347.4375 C-10 350 -10 350 -11 350 C-11.11444774 307.22142266 -11.20255009 264.44286299 -11.25532665 221.66416288 C-11.26158017 216.61359206 -11.26805178 211.56302154 -11.2746582 206.51245117 C-11.27662553 205.0042366 -11.27662553 205.0042366 -11.2786326 203.46555304 C-11.30038834 187.18563936 -11.33981081 170.90581397 -11.38576398 154.62595267 C-11.43252391 137.9209414 -11.46029442 121.21597637 -11.47044247 104.51090235 C-11.47730258 94.20318765 -11.49896848 83.89572251 -11.53958233 73.58808463 C-11.56601495 66.51945962 -11.57399981 59.4509636 -11.56750689 52.38229275 C-11.5643048 48.304145 -11.56920838 44.22643331 -11.59602737 40.14836311 C-11.6204216 36.41165703 -11.62154834 32.67567879 -11.60449447 28.93893867 C-11.60139309 26.95327186 -11.62290298 24.96761317 -11.64540654 22.98207146 C-11.58346811 15.56691278 -10.75642846 9.89797364 -6 4 C-4.05353465 2.320092 -2.28501338 1.22221646 0 0 Z " fill="#2CAAE3" transform="translate(120,75)"/>
<path d="M0 0 C0.79921875 0.02707031 1.5984375 0.05414063 2.421875 0.08203125 C7.35524146 0.33356803 10.99412457 1.00848515 15.25 3.75 C15.91 4.74 16.57 5.73 17.25 6.75 C16.115625 6.70359375 14.98125 6.6571875 13.8125 6.609375 C10.71231738 6.5171916 7.62083643 6.48350287 4.51953125 6.53125 C3.80643799 6.54220703 3.09334473 6.55316406 2.35864258 6.56445312 C-8.45331692 7.51583546 -16.43543218 18.88804425 -23.09375 26.609375 C-26.92942815 31.02465032 -31.02881475 35.14077761 -35.1875 39.25 C-35.91904297 39.97703125 -36.65058594 40.7040625 -37.40429688 41.453125 C-39.18389824 43.22109499 -40.96580918 44.98666378 -42.75 46.75 C-43.41 46.42 -44.07 46.09 -44.75 45.75 C-44.75 44.43 -44.75 43.11 -44.75 41.75 C-44.09 41.75 -43.43 41.75 -42.75 41.75 C-43.41 39.77 -44.07 37.79 -44.75 35.75 C-44.09 35.75 -43.43 35.75 -42.75 35.75 C-42.54761719 35.21890625 -42.34523437 34.6878125 -42.13671875 34.140625 C-40.14546988 30.70782413 -37.40533126 28.24103174 -34.5625 25.5 C-30.35787778 21.37794502 -26.32431945 17.22212689 -22.5078125 12.734375 C-10.73101403 -0.56032194 -10.73101403 -0.56032194 0 0 Z " fill="#1133AF" transform="translate(276.75,270.25)"/>
<path d="M0 0 C6.06877248 5.01854716 11.59221888 10.47922897 17.1328125 16.0703125 C18.09702439 17.03894033 19.06153809 18.00726782 20.02633667 18.97531128 C23.06207213 22.02238123 26.09382733 25.07339192 29.125 28.125 C32.6482006 31.67189301 36.1730632 35.21710169 39.70217514 38.75811386 C41.10504784 40.16742051 42.50484196 41.57978955 43.90457153 42.99221802 C44.76251312 43.85346283 45.62045471 44.71470764 46.50439453 45.60205078 C47.25383331 46.35672638 48.00327209 47.11140198 48.77542114 47.88894653 C51.08129309 50.07714451 53.50902714 52.02761342 56 54 C57.117265 55.21976638 58.20254906 56.46978219 59.25 57.75 C64.70169011 64.11624379 70.87268108 69.58785019 78 74 C79.485 74.99 79.485 74.99 81 76 C67.83050689 75.14112001 57.56969798 65.91377784 48.79052734 56.79101562 C47.13019683 55.13023234 45.42247264 53.61951186 43.62890625 52.10546875 C37.97244539 47.18598698 32.65977172 41.91880947 27.34301758 36.63818359 C26.14787969 35.4546808 24.94825949 34.27568866 23.74438477 33.10107422 C21.98771921 31.38694121 20.24455978 29.66006012 18.50390625 27.9296875 C17.96544571 27.40873505 17.42698517 26.88778259 16.87220764 26.3510437 C13.90819676 23.36950215 12.31146971 21.25139089 12 17 C11.01 17 10.02 17 9 17 C9 16.01 9 15.02 9 14 C8.38350573 9.19525893 5.17935495 6.79840364 1.71484375 3.69921875 C1.14894531 3.13847656 0.58304688 2.57773437 0 2 C0 1.34 0 0.68 0 0 Z " fill="#2527B6" transform="translate(225,348)"/>
<path d="M0 0 C0.33 0 0.66 0 1 0 C1.04241723 2.33294775 1.04092937 4.66702567 1 7 C0.67 7.33 0.34 7.66 0 8 C-0.09535213 9.36608326 -0.1218867 10.73705455 -0.12025452 12.10646057 C-0.12162918 12.99132141 -0.12300385 13.87618225 -0.12442017 14.78785706 C-0.12082489 15.76608932 -0.11722961 16.74432159 -0.11352539 17.75219727 C-0.11367142 18.7764682 -0.11381744 19.80073914 -0.1139679 20.85604858 C-0.11326828 24.25952229 -0.10547363 27.66294204 -0.09765625 31.06640625 C-0.09579224 33.41910268 -0.09436826 35.7717995 -0.09336853 38.12449646 C-0.08954199 44.33056705 -0.07971055 50.5366144 -0.06866455 56.74267578 C-0.05845334 63.06998378 -0.05387154 69.39729552 -0.04882812 75.72460938 C-0.0380884 88.14974982 -0.02101036 100.57487298 0 113 C2.76264289 113.59732819 5.16032769 114 8 114 C8 112.02 8 110.04 8 108 C9.98 107.01 9.98 107.01 12 106 C11.67 106.99 11.34 107.98 11 109 C11.66 109 12.32 109 13 109 C13.0928125 107.9171875 13.0928125 107.9171875 13.1875 106.8125 C14.60037201 101.92178918 18.10790565 99.58329246 22.25 96.875 C25.26003892 95.22935878 25.26003892 95.22935878 26 92 C26.825 91.401875 27.65 90.80375 28.5 90.1875 C31.54393391 87.52405783 31.73087196 85.94721131 32 82 C34 82 36 82 38 82 C38 81.34 38 80.68 38 80 C38.66 80 39.32 80 40 80 C40 78.68 40 77.36 40 76 C40.99 76 41.98 76 43 76 C43 75.34 43 74.68 43 74 C43.99 74 44.98 74 46 74 C46 73.34 46 72.68 46 72 C46.99 72.33 47.98 72.66 49 73 C48.21496094 73.7734375 47.42992187 74.546875 46.62109375 75.34375 C41.48759939 80.42487846 36.45613641 85.50278598 31.7734375 91.0078125 C28.80428153 94.34320797 25.58181657 97.42519327 22.40625 100.5625 C20.34550655 102.65000635 18.40484374 104.77169223 16.5 107 C12.27395018 111.93706768 7.62562165 116.44130856 3 121 C1.3321723 122.66550482 -0.33481547 124.33185251 -2 126 C-3.60104621 124.39895379 -3.13269345 122.70976738 -3.14044189 120.49180603 C-3.14900711 119.03040192 -3.14900711 119.03040192 -3.15774536 117.53947449 C-3.15886322 116.46160172 -3.15998108 115.38372894 -3.16113281 114.27319336 C-3.16609772 113.14472992 -3.17106262 112.01626648 -3.17617798 110.85360718 C-3.19084989 107.09901328 -3.19761147 103.34446168 -3.203125 99.58984375 C-3.20887421 96.98726907 -3.21463197 94.3846944 -3.22039795 91.78211975 C-3.22997958 87.01351807 -3.23586936 82.24492556 -3.2388947 77.47631544 C-3.24336593 70.46714748 -3.26086472 63.45817546 -3.2898953 56.44906706 C-3.31417779 50.37449136 -3.3218422 44.29999606 -3.32357025 38.22537422 C-3.32659548 35.64463805 -3.33461958 33.06390268 -3.34775543 30.48319817 C-3.36484524 26.86617185 -3.36292765 23.24961888 -3.35644531 19.63256836 C-3.3656601 18.5688652 -3.37487488 17.50516205 -3.3843689 16.40922546 C-3.34974761 10.22985772 -2.54886481 5.64540761 0 0 Z " fill="#26A5E9" transform="translate(208,206)"/>
<path d="M0 0 C2.109375 0.41015625 2.109375 0.41015625 4 1 C3.44570312 1.59167969 2.89140625 2.18335938 2.3203125 2.79296875 C1.59585938 3.58316406 0.87140625 4.37335938 0.125 5.1875 C-0.59429687 5.96480469 -1.31359375 6.74210937 -2.0546875 7.54296875 C-5.75629185 12.21828831 -6.40671151 16.10268317 -6 22 C-5.649375 23.19625 -5.29875 24.3925 -4.9375 25.625 C-3.9890925 29.03926699 -3.86554038 30.69115943 -5 34 C-5.66 34.66 -6.32 35.32 -7 36 C-8.00596297 35.0479279 -9.00461563 34.08812654 -10 33.125 C-10.556875 32.59132813 -11.11375 32.05765625 -11.6875 31.5078125 C-13 30 -13 30 -13 28 C-13.99 27.67 -14.98 27.34 -16 27 C-18.74188556 23.77602467 -21 20.54378883 -21 16.25 C-19.04191617 11.84431138 -19.04191617 11.84431138 -17 10 C-14.2981226 9.35923856 -11.79039833 9.18297694 -9 9 C-8.87625 8.21625 -8.7525 7.4325 -8.625 6.625 C-8 4 -8 4 -6 2 C-5.01 2.33 -4.02 2.66 -3 3 C-2.5875 2.484375 -2.175 1.96875 -1.75 1.4375 C-1.1725 0.963125 -0.595 0.48875 0 0 Z " fill="#1635B1" transform="translate(229,317)"/>
<path d="M0 0 C0.66 0.33 1.32 0.66 2 1 C0.7934375 2.0828125 0.7934375 2.0828125 -0.4375 3.1875 C-3.14152087 6.15532779 -3.29110581 7.25298784 -4 11 C-6.02734375 12.14453125 -6.02734375 12.14453125 -8 13 C-7.99907821 13.83771313 -7.99815641 14.67542625 -7.99720669 15.53852463 C-7.96791958 42.60901132 -7.94864682 69.67949978 -7.9375 96.75 C-7.9370657 97.77483254 -7.93663139 98.79966508 -7.93618393 99.85555315 C-7.89435008 201.28113717 -7.89435008 201.28113717 -8.5 249.1875 C-8.51195782 250.13439194 -8.52391563 251.08128387 -8.53623581 252.05686951 C-8.67225286 262.70488124 -8.82334414 273.35257933 -9 284 C-9.33 284 -9.66 284 -10 284 C-10.0915537 249.34058824 -10.16203778 214.68120408 -10.20426132 180.02169752 C-10.20926415 175.92991078 -10.21444144 171.83812428 -10.21972656 167.74633789 C-10.2207758 166.93173623 -10.22182505 166.11713457 -10.22290608 165.27784801 C-10.24031174 152.08759271 -10.27185031 138.89740713 -10.30861118 125.70719319 C-10.34601615 112.17300522 -10.36823491 98.63885377 -10.37635398 85.10461622 C-10.38184268 76.75311154 -10.39917876 68.40180393 -10.43166587 60.05035991 C-10.45280828 54.32360358 -10.45920068 48.59694916 -10.45400551 42.87015664 C-10.45144325 39.56592559 -10.45755927 36.26211163 -10.4768219 32.9579258 C-10.49669501 29.37364729 -10.4919479 25.79021506 -10.48101807 22.20591736 C-10.49266943 21.16407836 -10.5043208 20.12223937 -10.51632524 19.0488295 C-10.46487173 12.81496418 -9.65494541 9.09951107 -6 4 C-4.0796712 2.24263488 -2.28729074 1.29959701 0 0 Z " fill="#13B1EC" transform="translate(120,75)"/>
<path d="M0 0 C1.875 0.625 1.875 0.625 4 2 C5.25 5.125 5.25 5.125 6 8 C5.34 8.66 4.68 9.32 4 10 C4 9.34 4 8.68 4 8 C-38.24 8 -80.48 8 -124 8 C-124 7.34 -124 6.68 -124 6 C-81.76 6 -39.52 6 4 6 C2.68 4.02 1.36 2.04 0 0 Z " fill="#0F0024" transform="translate(434,419)"/>
<path d="M0 0 C0 0.66 0 1.32 0 2 C-1.2065625 2.433125 -1.2065625 2.433125 -2.4375 2.875 C-5.1326468 3.73262568 -5.1326468 3.73262568 -6 6 C-6.763125 6.721875 -7.52625 7.44375 -8.3125 8.1875 C-10.50209832 10.4789401 -11.64221572 11.98219661 -13.0625 14.6875 C-15.09720769 18.16619379 -15.64591678 18.3770565 -19 20 C-19.433125 20.99 -19.86625 21.98 -20.3125 23 C-22 26 -22 26 -25.6875 27.375 C-26.780625 27.58125 -27.87375 27.7875 -29 28 C-28.67 29.65 -28.34 31.3 -28 33 C-28.55429688 33.38671875 -29.10859375 33.7734375 -29.6796875 34.171875 C-30.76636719 34.95304687 -30.76636719 34.95304687 -31.875 35.75 C-32.95394531 36.51570313 -32.95394531 36.51570313 -34.0546875 37.296875 C-36.10201369 39.08931319 -36.83228872 40.58842236 -38 43 C-38.825 43.309375 -39.65 43.61875 -40.5 43.9375 C-43.20675962 44.74869692 -43.20675962 44.74869692 -44 47.3125 C-44.33 48.199375 -44.66 49.08625 -45 50 C-46.62652316 51.70586575 -48.29006566 53.3777546 -50 55 C-50.33 55.66 -50.66 56.32 -51 57 C-51.66 57 -52.32 57 -53 57 C-53 58.65 -53 60.3 -53 62 C-53.33 62 -53.66 62 -54 62 C-54.37863903 55.68934958 -53.15710524 51.80671624 -49.30078125 46.7890625 C-43.65520869 40.64437253 -37.80239016 34.73187792 -31.84887695 28.88525391 C-27.93992726 25.02783281 -24.25111715 21.06036719 -20.66552734 16.90136719 C-18.17357594 14.05655371 -15.54666782 11.36267395 -12.875 8.6875 C-12.37613281 8.17638672 -11.87726563 7.66527344 -11.36328125 7.13867188 C-4.25245855 0 -4.25245855 0 0 0 Z " fill="#823AF7" transform="translate(276,277)"/>
<path d="M0 0 C1.6875 0.125 1.6875 0.125 4 1 C4.804375 1.969375 5.60875 2.93875 6.4375 3.9375 C8.63376905 7.08470842 8.63376905 7.08470842 11.28515625 7.82421875 C14.9548633 9.41354511 17.30051354 12.01792931 20 14.875 C23.51037687 18.53683984 27.02158078 21.83595518 31 25 C32.117265 26.21976638 33.20254906 27.46978219 34.25 28.75 C39.70169011 35.11624379 45.87268108 40.58785019 53 45 C53.99 45.66 54.98 46.32 56 47 C47.6 46.01176471 47.6 46.01176471 44 44 C43.855625 43.34 43.71125 42.68 43.5625 42 C43.376875 41.34 43.19125 40.68 43 40 C41.02253397 39.26919734 39.01927511 38.60578253 37 38 C35.125 36.625 35.125 36.625 34 35 C34 33.68 34 32.36 34 31 C33.67 31.66 33.34 32.32 33 33 C32.01 32.67 31.02 32.34 30 32 C30 31.34 30 30.68 30 30 C29.46375 29.79375 28.9275 29.5875 28.375 29.375 C25.08021991 27.46749574 22.40636372 24.95180616 20 22 C20 21.34 20 20.68 20 20 C19.34 20 18.68 20 18 20 C18 19.34 18 18.68 18 18 C17.34 18 16.68 18 16 18 C16 17.34 16 16.68 16 16 C15.34 16 14.68 16 14 16 C10 11.52941176 10 11.52941176 10 9 C9.278125 8.95875 8.55625 8.9175 7.8125 8.875 C3.71810125 7.60118706 2.47551196 5.46571675 0 2 C0 1.34 0 0.68 0 0 Z " fill="#2A2DBD" transform="translate(250,377)"/>
<path d="M0 0 C0.8353125 1.2375 0.8353125 1.2375 1.6875 2.5 C3.74927133 5.2745414 3.74927133 5.2745414 6.75 5.3125 C7.4925 5.209375 8.235 5.10625 9 5 C8.773125 5.7425 8.54625 6.485 8.3125 7.25 C7.70523302 10.05914993 7.70523302 10.05914993 9.4375 12.3125 C9.953125 12.869375 10.46875 13.42625 11 14 C11.66 13.67 12.32 13.34 13 13 C13.33 13.66 13.66 14.32 14 15 C14.33 14.34 14.66 13.68 15 13 C15.66 13.33 16.32 13.66 17 14 C16.731875 14.556875 16.46375 15.11375 16.1875 15.6875 C16.0946875 16.8321875 16.0946875 16.8321875 16 18 C18.22877725 20.64573501 18.22877725 20.64573501 21 23 C22.8125 24.625 22.8125 24.625 24 26 C24 26.99 24 27.98 24 29 C24.928125 29.226875 25.85625 29.45375 26.8125 29.6875 C30.52942635 31.21799908 31.37907396 32.39794214 33 36 C33 36.66 33 37.32 33 38 C33.99 37.67 34.98 37.34 36 37 C39.6129609 38.97070595 40.75237172 41.15314615 42 45 C43.65 45 45.3 45 47 45 C46.67 46.32 46.34 47.64 46 49 C46.75796875 49.61488281 46.75796875 49.61488281 47.53125 50.2421875 C48.1809375 50.78101563 48.830625 51.31984375 49.5 51.875 C50.1496875 52.40867187 50.799375 52.94234375 51.46875 53.4921875 C51.9740625 53.98976563 52.479375 54.48734375 53 55 C53 55.66 53 56.32 53 57 C53.66 57 54.32 57 55 57 C54.67 57.99 54.34 58.98 54 60 C47.84264634 54.90152739 42.19465962 49.3582918 36.54296875 43.7109375 C35.54892454 42.72011311 34.55480805 41.72936122 33.56062317 40.73867798 C31.49054986 38.6745548 29.42251517 36.6084138 27.35571289 34.54101562 C24.71009168 31.89529222 22.05762088 29.25655084 19.40339184 26.61946678 C17.35392751 24.58111976 15.30902303 22.53824517 13.26537514 20.49406815 C12.28898764 19.51885818 11.31098392 18.54526352 10.33131981 17.57334518 C8.96507586 16.2169092 7.6057924 14.8534733 6.24682617 13.48974609 C5.08602791 12.33108536 5.08602791 12.33108536 3.90177917 11.14901733 C0.64071055 7.46399802 -0.27261398 4.90705155 0 0 Z M56 55 C56.33 55.66 56.66 56.32 57 57 C56.34 56.67 55.68 56.34 55 56 C55.33 55.67 55.66 55.34 56 55 Z " fill="#803BF6" transform="translate(223,339)"/>
<path d="M0 0 C0.8979126 -0.00014603 1.7958252 -0.00029205 2.72094727 -0.0004425 C5.68605981 0.00025363 8.65110938 0.0080321 11.61621094 0.01586914 C13.67315639 0.01773438 15.73010229 0.01915778 17.78704834 0.02015686 C23.19902779 0.02397369 28.61098038 0.03379688 34.02294922 0.04486084 C39.54622026 0.05509287 45.06949565 0.05965833 50.59277344 0.06469727 C61.42872274 0.07541988 72.2646521 0.09248632 83.10058594 0.11352539 C81.78058594 3.08352539 80.46058594 6.05352539 79.10058594 9.11352539 C78.60558594 7.13352539 78.60558594 7.13352539 78.10058594 5.11352539 C77.11058594 4.61852539 77.11058594 4.61852539 76.10058594 4.11352539 C77.42058594 4.11352539 78.74058594 4.11352539 80.10058594 4.11352539 C80.10058594 3.45352539 80.10058594 2.79352539 80.10058594 2.11352539 C48.42058594 2.44352539 16.74058594 2.77352539 -15.89941406 3.11352539 C-10.76155575 -0.31171349 -6.03935665 -0.0256691 0 0 Z " fill="#28D3DB" transform="translate(340.8994140625,72.886474609375)"/>
<path d="M0 0 C0.66 0.33 1.32 0.66 2 1 C0.7934375 2.0828125 0.7934375 2.0828125 -0.4375 3.1875 C-3.14152087 6.15532779 -3.29110581 7.25298784 -4 11 C-5.98 11.99 -5.98 11.99 -8 13 C-8.33 50.62 -8.66 88.24 -9 127 C-9.33 127 -9.66 127 -10 127 C-10.09354503 111.99644222 -10.16402893 96.99290709 -10.20724869 81.98911953 C-10.22785206 75.02218805 -10.25592968 68.05543803 -10.30175781 61.08862305 C-10.3459663 54.36480783 -10.36914041 47.64122004 -10.37950897 40.91725349 C-10.38689775 38.35241797 -10.40132622 35.78759271 -10.42292023 33.22283745 C-10.45197128 29.62937024 -10.45595511 26.03668105 -10.45410156 22.44311523 C-10.46848267 21.3835965 -10.48286377 20.32407776 -10.49768066 19.23245239 C-10.46250324 12.92670577 -9.71327395 9.15020856 -6 4 C-4.0796712 2.24263488 -2.28729074 1.29959701 0 0 Z " fill="#0FC3ED" transform="translate(120,75)"/>
<path d="M0 0 C2.04119788 1.61594832 4.04072937 3.2856382 6 5 C6 5.66 6 6.32 6 7 C-36.57 7 -79.14 7 -123 7 C-123 6.67 -123 6.34 -123 6 C-81.42 6 -39.84 6 3 6 C2.505 5.01 2.505 5.01 2 4 C1.01 4 0.02 4 -1 4 C-0.67 2.68 -0.34 1.36 0 0 Z " fill="#8738BD" transform="translate(432,418)"/>
<path d="M0 0 C3 2 3 2 4.625 5.5 C7.28557151 11.15371447 11.47636302 15.73834972 16 20 C16.66 20 17.32 20 18 20 C22.38226117 20 22.79521407 20.18979146 25.75 23.0625 C28.54489804 25.98254272 28.96956366 26.72607294 29.4375 30.9375 C29.293125 31.948125 29.14875 32.95875 29 34 C29.99 34 30.98 34 32 34 C32.495 35.98 32.495 35.98 33 38 C28.76402812 35.3402037 25.52506091 32.5948641 22 29 C20.80396879 27.82360083 19.60591029 26.64926061 18.40625 25.4765625 C17.10407461 24.19280171 15.8019931 22.90894567 14.5 21.625 C13.84902344 20.99078125 13.19804687 20.3565625 12.52734375 19.703125 C6.55029833 13.78645377 1.87606361 8.35701064 0 0 Z " fill="#1F339D" transform="translate(205,331)"/>
<path d="M0 0 C2.19798983 0.98530579 3.82052548 1.81304737 5.5 3.5625 C7.27460185 5.26316011 8.61006256 5.58794182 11 6 C11.103125 6.639375 11.20625 7.27875 11.3125 7.9375 C11.539375 8.618125 11.76625 9.29875 12 10 C12.99 10.33 13.98 10.66 15 11 C15 11.66 15 12.32 15 13 C15.66 13 16.32 13 17 13 C17 13.66 17 14.32 17 15 C17.66 15 18.32 15 19 15 C19 15.66 19 16.32 19 17 C19.66 17 20.32 17 21 17 C22.55078125 18.609375 22.55078125 18.609375 24.3125 20.75 C26.98362313 23.90170177 29.64182828 26.55769329 33 29 C33.66 28.67 34.32 28.34 35 28 C35.061875 28.598125 35.12375 29.19625 35.1875 29.8125 C36.33135807 32.89211788 38.17695452 33.42434671 41 35 C42.36984198 36.29579647 43.7151049 37.61992749 45 39 C38.828385 39 33.13921506 32.99233233 28.78125 28.93359375 C27.46670788 27.6007941 26.161981 26.25824322 24.8671875 24.90625 C23.1284136 23.13110008 21.33775765 21.53599999 19.4375 19.9375 C15.09137746 16.2035074 11.05508058 12.16871253 7 8.125 C6.31607178 7.4455835 5.63214355 6.76616699 4.92749023 6.06616211 C3.97338257 5.10915405 3.97338257 5.10915405 3 4.1328125 C2.4225 3.55418457 1.845 2.97555664 1.25 2.37939453 C0 1 0 1 0 0 Z " fill="#28319D" transform="translate(249,380)"/>
<path d="M0 0 C3.51425584 0.77844592 6.53088218 1.97047985 9.6875 3.6875 C8.6253125 3.60628906 7.563125 3.52507812 6.46875 3.44140625 C-2.83945544 2.69348609 -2.83945544 2.69348609 -10.875 6.6875 C-12.06461249 7.98192417 -13.21110979 9.31722579 -14.3125 10.6875 C-14.92351562 11.37070312 -15.53453125 12.05390625 -16.1640625 12.7578125 C-17.32096397 14.05255755 -18.46048455 15.36325323 -19.57421875 16.6953125 C-21.71212508 19.14549729 -23.99799969 21.40314513 -26.3125 23.6875 C-27.36533521 24.73883092 -28.41738062 25.7909532 -29.46875 26.84375 C-34.41666667 31.79166667 -39.36458333 36.73958333 -44.3125 41.6875 C-44.3125 38.6875 -44.3125 38.6875 -41.71484375 35.83203125 C-40.56724837 34.71375887 -39.41192134 33.60337984 -38.25 32.5 C-33.32763865 27.76978594 -28.76735513 22.85962686 -24.3125 17.6875 C-8.51063198 -0.6346912 -8.51063198 -0.6346912 0 0 Z " fill="#002B99" transform="translate(274.3125,267.3125)"/>
<path d="M0 0 C3.62675625 1.4895606 5.50480955 3.51333264 8 6.5 C14.00981607 13.34561831 21.20240968 21.04606456 30 24 C26.80558545 25.05523357 24.9598546 24.97578115 21.8125 23.8125 C21.11769531 23.57144531 20.42289062 23.33039063 19.70703125 23.08203125 C17.45566476 21.6549637 17.56902098 20.51779196 17 18 C15.02253397 17.26919734 13.01927511 16.60578253 11 16 C9.125 14.625 9.125 14.625 8 13 C8 11.68 8 10.36 8 9 C7.67 9.66 7.34 10.32 7 11 C6.01 10.67 5.02 10.34 4 10 C4 9.34 4 8.68 4 8 C2.68 7.34 1.36 6.68 0 6 C0 4.02 0 2.04 0 0 Z " fill="#3225C0" transform="translate(276,399)"/>
<path d="M0 0 C0.33 0 0.66 0 1 0 C1.04241723 2.33294775 1.04092937 4.66702567 1 7 C0.67 7.33 0.34 7.66 0 8 C-0.08846078 9.68362019 -0.10689381 11.37096753 -0.09765625 13.05688477 C-0.09435303 14.14054825 -0.0910498 15.22421173 -0.08764648 16.3407135 C-0.07934814 17.52894211 -0.0710498 18.71717072 -0.0625 19.94140625 C-0.05871338 21.17044174 -0.05492676 22.39947723 -0.05102539 23.66575623 C-0.03473595 28.93192026 -0.00717216 34.1979965 0.02050781 39.46411133 C0.10167007 56.34052045 -0.10051393 73.14525176 -1 90 C-1.33 90 -1.66 90 -2 90 C-2.04634426 79.003748 -2.08187988 68.00751924 -2.10362434 57.01118946 C-2.11406068 51.90512962 -2.12821724 46.79913661 -2.15087891 41.69311523 C-2.1726125 36.76535574 -2.18456976 31.83766052 -2.18975449 26.9098568 C-2.1934493 25.02999548 -2.20066432 23.15013767 -2.21146011 21.27030373 C-2.22598182 18.6369123 -2.22797765 16.00378636 -2.22705078 13.37036133 C-2.23424133 12.59352493 -2.24143188 11.81668854 -2.24884033 11.01631165 C-2.233166 6.899646 -1.84650783 3.70281896 0 0 Z " fill="#13ACEF" transform="translate(208,206)"/>
<path d="M0 0 C0.99 0.33 1.98 0.66 3 1 C2.21496094 1.7734375 1.42992187 2.546875 0.62109375 3.34375 C-4.50230813 8.41488894 -9.52698824 13.48118468 -14.19921875 18.9765625 C-17.93368235 23.17277106 -21.99328899 27.06584512 -26 31 C-26.33 29.68 -26.66 28.36 -27 27 C-25.5459375 26.1028125 -25.5459375 26.1028125 -24.0625 25.1875 C-20.76947958 23.28872491 -20.76947958 23.28872491 -20 20 C-19.175 19.401875 -18.35 18.80375 -17.5 18.1875 C-14.45606609 15.52405783 -14.26912804 13.94721131 -14 10 C-12 10 -10 10 -8 10 C-8 9.34 -8 8.68 -8 8 C-7.34 8 -6.68 8 -6 8 C-6 6.68 -6 5.36 -6 4 C-5.01 4 -4.02 4 -3 4 C-3 3.34 -3 2.68 -3 2 C-2.01 2 -1.02 2 0 2 C0 1.34 0 0.68 0 0 Z " fill="#21AEFD" transform="translate(254,278)"/>
<path d="M0 0 C0.99 0.66 1.98 1.32 3 2 C3 2.66 3 3.32 3 4 C4.65 4.33 6.3 4.66 8 5 C8 5.66 8 6.32 8 7 C-14.44 7 -36.88 7 -60 7 C-60 6.67 -60 6.34 -60 6 C-40.53 5.67 -21.06 5.34 -1 5 C-0.67 3.35 -0.34 1.7 0 0 Z " fill="#AC1FFB" transform="translate(426,416)"/>
<path d="M0 0 C0.66 0.33 1.32 0.66 2 1 C0.40193652 7.08882416 -2.8611283 12.0664755 -6.125 17.375 C-6.68832031 18.30183594 -7.25164062 19.22867188 -7.83203125 20.18359375 C-9.21606043 22.45903155 -10.60548922 24.7309763 -12 27 C-13.125 23.25 -13.125 23.25 -12 21 C-11.34 21 -10.68 21 -10 21 C-9.87882812 20.22914062 -9.75765625 19.45828125 -9.6328125 18.6640625 C-9.46523438 17.66117188 -9.29765625 16.65828125 -9.125 15.625 C-8.96257812 14.62726563 -8.80015625 13.62953125 -8.6328125 12.6015625 C-8 10 -8 10 -6 8 C-5.34 7.29875 -4.68 6.5975 -4 5.875 C-2 4 -2 4 0 4 C0 2.68 0 1.36 0 0 Z " fill="#17DBE1" transform="translate(417,81)"/>
<path d="M0 0 C0.99 0.33 1.98 0.66 3 1 C0.24136787 3.84543756 -2.53381999 6.67414757 -5.3125 9.5 C-6.49102539 10.71623047 -6.49102539 10.71623047 -7.69335938 11.95703125 C-8.45068359 12.72402344 -9.20800781 13.49101562 -9.98828125 14.28125 C-10.68477783 14.99345703 -11.38127441 15.70566406 -12.09887695 16.43945312 C-14 18 -14 18 -17 18 C-17.33 15.69 -17.66 13.38 -18 11 C-17.34 11 -16.68 11 -16 11 C-15.01 12.485 -15.01 12.485 -14 14 C-13.54625 13.34 -13.0925 12.68 -12.625 12 C-12.08875 11.34 -11.5525 10.68 -11 10 C-10.34 10 -9.68 10 -9 10 C-8.67 9.01 -8.34 8.02 -8 7 C-7.01 7 -6.02 7 -5 7 C-5 6.34 -5 5.68 -5 5 C-4.34 5 -3.68 5 -3 5 C-2.690625 4.360625 -2.38125 3.72125 -2.0625 3.0625 C-1 1 -1 1 0 0 Z " fill="#21ADE6" transform="translate(170,364)"/>
<path d="M0 0 C4.56337589 2.04948076 7.93609517 5.05947796 11 9 C11.25 11.75 11.25 11.75 11 14 C12.39585785 15.81476003 12.39585785 15.81476003 14 17 C13.67 17.66 13.34 18.32 13 19 C11.67532989 17.78395887 10.36567595 16.55154778 9.0625 15.3125 C8.33160156 14.62800781 7.60070312 13.94351562 6.84765625 13.23828125 C4.80570157 10.76462368 4.34750001 9.14956359 4 6 C3.01 6 2.02 6 1 6 C0.67 4.02 0.34 2.04 0 0 Z " fill="#2433B9" transform="translate(233,359)"/>
<path d="M0 0 C1.65 0 3.3 0 5 0 C0.59156563 5.29012124 -4.07559794 10.18808428 -9 15 C-9.99 14.01 -10.98 13.02 -12 12 C-10.74458443 9.48916886 -9.49936512 9.12874554 -7 8 C-7.33 6.02 -7.66 4.04 -8 2 C-7.34 2 -6.68 2 -6 2 C-5.87625 2.639375 -5.7525 3.27875 -5.625 3.9375 C-5.315625 4.9584375 -5.315625 4.9584375 -5 6 C-4.34 6.33 -3.68 6.66 -3 7 C-3 6.01 -3 5.02 -3 4 C-2.34 4 -1.68 4 -1 4 C-0.67 2.68 -0.34 1.36 0 0 Z " fill="#10B7F8" transform="translate(268,262)"/>
<path d="M0 0 C1.35439668 2.70879335 1.06501451 5.00933268 1 8 C0.01 8 -0.98 8 -2 8 C-3.84526962 10.62596061 -4.98375849 12.95127546 -6 16 C-8.0625 16.6875 -8.0625 16.6875 -10 17 C-10 17.66 -10 18.32 -10 19 C-10.66 19 -11.32 19 -12 19 C-10.60736986 13.73361707 -8.22915161 10.27775914 -4.875 6.125 C-4.40707031 5.53203125 -3.93914062 4.9390625 -3.45703125 4.328125 C-2.31214408 2.87949226 -1.15709683 1.43889901 0 0 Z " fill="#15BDE4" transform="translate(221,187)"/>
<path d="M0 0 C2.125 0.375 2.125 0.375 4 1 C3.44570312 1.59167969 2.89140625 2.18335938 2.3203125 2.79296875 C1.59585938 3.58316406 0.87140625 4.37335938 0.125 5.1875 C-0.95394531 6.35345703 -0.95394531 6.35345703 -2.0546875 7.54296875 C-5.25289818 11.58247581 -6.21883185 15.23539815 -6.625 20.3125 C-6.69976562 21.19550781 -6.77453125 22.07851563 -6.8515625 22.98828125 C-6.92503906 23.98408203 -6.92503906 23.98408203 -7 25 C-7.33 25 -7.66 25 -8 25 C-8.29294756 7.58589512 -8.29294756 7.58589512 -6 3 C-4.66923011 2.65657551 -3.33568021 2.32380126 -2 2 C-1.34 1.34 -0.68 0.68 0 0 Z " fill="#142AAC" transform="translate(229,317)"/>
<path d="M0 0 C0.66 0.33 1.32 0.66 2 1 C0.7934375 2.0828125 0.7934375 2.0828125 -0.4375 3.1875 C-3.14152087 6.15532779 -3.29110581 7.25298784 -4 11 C-4.98033203 11.31517578 -4.98033203 11.31517578 -5.98046875 11.63671875 C-6.64691406 12.08660156 -7.31335938 12.53648438 -8 13 C-8.46588547 15.82517725 -8.69615501 18.29079561 -8.75 21.125 C-8.77964844 21.87910156 -8.80929688 22.63320312 -8.83984375 23.41015625 C-8.91057932 25.27285953 -8.95754983 27.13643755 -9 29 C-9.33 29 -9.66 29 -10 29 C-10.10876982 26.14479219 -10.18766466 23.29379439 -10.25 20.4375 C-10.28351563 19.63763672 -10.31703125 18.83777344 -10.3515625 18.01367188 C-10.44761647 12.13036625 -9.4355251 8.80973514 -6 4 C-4.0796712 2.24263488 -2.28729074 1.29959701 0 0 Z " fill="#12D2EC" transform="translate(120,75)"/>
<path d="M0 0 C2.97 0.495 2.97 0.495 6 1 C6.33 1.99 6.66 2.98 7 4 C7.99 4.33 8.98 4.66 10 5 C10.33333333 6.33333333 10.66666667 7.66666667 11 9 C11.99 9.33 12.98 9.66 14 10 C15.35368596 11.31266518 16.68799596 12.64567325 18 14 C18.66 14.33 19.32 14.66 20 15 C20 15.66 20 16.32 20 17 C20.66 17 21.32 17 22 17 C21.67 17.66 21.34 18.32 21 19 C5.75523852 7.65938475 5.75523852 7.65938475 0 1 C0 0.67 0 0.34 0 0 Z " fill="#7E37F1" transform="translate(282,404)"/>
<path d="M0 0 C0.33 0.66 0.66 1.32 1 2 C0.67 2.99 0.34 3.98 0 5 C-0.66 5 -1.32 5 -2 5 C-2 5.66 -2 6.32 -2 7 C-2.99 7.495 -2.99 7.495 -4 8 C-5.04808041 9.97522846 -6.0520411 11.97481509 -7 14 C-7.66 14 -8.32 14 -9 14 C-9.33 14.99 -9.66 15.98 -10 17 C-12.4375 18.75 -12.4375 18.75 -15 20 C-15.66 19.67 -16.32 19.34 -17 19 C-16.19175781 18.13117188 -15.38351562 17.26234375 -14.55078125 16.3671875 C-13.47127513 15.20319829 -12.3918525 14.03913165 -11.3125 12.875 C-10.78205078 12.30523437 -10.25160156 11.73546875 -9.70507812 11.1484375 C-6.34790794 7.52351755 -3.13096309 3.82221468 0 0 Z " fill="#17D6E7" transform="translate(309,89)"/>
<path d="M0 0 C2.50850025 0.70540816 4.58802811 1.52123279 6.84765625 2.80078125 C5.78546875 2.71957031 4.72328125 2.63835937 3.62890625 2.5546875 C-4.32789174 1.96025673 -4.32789174 1.96025673 -11.78515625 4.18359375 C-13.7391511 5.9536832 -15.43983405 7.79871677 -17.15234375 9.80078125 C-18.29891182 10.80340787 -19.4640602 11.78546402 -20.65234375 12.73828125 C-21.47734375 13.41890625 -22.30234375 14.09953125 -23.15234375 14.80078125 C-18.81909947 4.6576005 -11.10589716 -1.76776735 0 0 Z " fill="#0A2D89" transform="translate(277.15234375,268.19921875)"/>
<path d="M0 0 C0.68835938 0.59748047 0.68835938 0.59748047 1.390625 1.20703125 C4.52271585 3.91142062 7.63877459 6.57991771 11 9 C11.66 8.67 12.32 8.34 13 8 C13.061875 8.598125 13.12375 9.19625 13.1875 9.8125 C14.33135807 12.89211788 16.17695452 13.42434671 19 15 C20.36984198 16.29579647 21.7151049 17.61992749 23 19 C15.78543235 19 8.72264712 10.92620567 3.8125 6.125 C0 2.29246935 0 2.29246935 0 0 Z " fill="#2E30A2" transform="translate(271,400)"/>
<path d="M0 0 C0 3 0 3 -2.25 5.4375 C-3.61125 6.7059375 -3.61125 6.7059375 -5 8 C-8.23256242 11.01284462 -8.23256242 11.01284462 -10 15 C-9.01 15.33 -8.02 15.66 -7 16 C-10.01031744 16.93423645 -10.86650268 17.04449911 -14 16 C-14.268125 16.61875 -14.53625 17.2375 -14.8125 17.875 C-16 20 -16 20 -19 22 C-14.99800611 13.26487873 -6.74064815 6.6185841 0 0 Z " fill="#0330A2" transform="translate(226,311)"/>
<path d="M0 0 C0.33 0.99 0.66 1.98 1 3 C0.30132812 3.67546875 -0.39734375 4.3509375 -1.1171875 5.046875 C-2.02726562 5.93890625 -2.93734375 6.8309375 -3.875 7.75 C-4.77992188 8.63171875 -5.68484375 9.5134375 -6.6171875 10.421875 C-9.02488055 12.78670113 -9.02488055 12.78670113 -10.1328125 15.265625 C-10.41898437 15.83796875 -10.70515625 16.4103125 -11 17 C-11.99 17.33 -12.98 17.66 -14 18 C-14.66 18.99 -15.32 19.98 -16 21 C-16.66 20.67 -17.32 20.34 -18 20 C-12 13.33333333 -6 6.66666667 0 0 Z " fill="#001422" transform="translate(319,212)"/>
<path d="M0 0 C1 3 1 3 0 6 C-1.59375 7.53515625 -1.59375 7.53515625 -3.5 9.0625 C-6.18106401 11.17721767 -6.18106401 11.17721767 -8 14 C-8.66 14 -9.32 14 -10 14 C-10.33 15.32 -10.66 16.64 -11 18 C-12.32 17.67 -13.64 17.34 -15 17 C-13.87851562 15.78763672 -13.87851562 15.78763672 -12.734375 14.55078125 C-11.73949763 13.47143316 -10.74471077 12.39200163 -9.75 11.3125 C-9.25886719 10.78205078 -8.76773437 10.25160156 -8.26171875 9.70507812 C-5.37269261 6.56566972 -2.62459433 3.36822939 0 0 Z " fill="#00131B" transform="translate(367,158)"/>
<path d="M0 0 C0.99 0.33 1.98 0.66 3 1 C-0.27530896 5.63720719 -3.30435607 9.68542782 -8 13 C-8.33 11.02 -8.66 9.04 -9 7 C-8.43410156 6.66226563 -7.86820312 6.32453125 -7.28515625 5.9765625 C-6.55167969 5.53054687 -5.81820313 5.08453125 -5.0625 4.625 C-4.33160156 4.18414062 -3.60070312 3.74328125 -2.84765625 3.2890625 C-0.86227728 2.1226016 -0.86227728 2.1226016 0 0 Z " fill="#16D7E2" transform="translate(367,154)"/>
<path d="M0 0 C0.99 0.33 1.98 0.66 3 1 C0.93132437 3.20319933 -1.15281794 5.38672975 -3.25 7.5625 C-4.12978516 8.50512695 -4.12978516 8.50512695 -5.02734375 9.46679688 C-5.60097656 10.05654297 -6.17460937 10.64628906 -6.765625 11.25390625 C-7.28930664 11.80377197 -7.81298828 12.3536377 -8.35253906 12.92016602 C-10 14 -10 14 -12.20214844 13.67163086 C-12.79543945 13.44999268 -13.38873047 13.22835449 -14 13 C-14 12.01 -14 11.02 -14 10 C-12 10 -10 10 -8 10 C-8 9.34 -8 8.68 -8 8 C-7.34 8 -6.68 8 -6 8 C-6 6.68 -6 5.36 -6 4 C-5.01 4 -4.02 4 -3 4 C-3 3.34 -3 2.68 -3 2 C-2.01 2 -1.02 2 0 2 C0 1.34 0 0.68 0 0 Z " fill="#17B8FC" transform="translate(254,278)"/>
<path d="M0 0 C0 0.66 0 1.32 0 2 C-1.2065625 2.433125 -1.2065625 2.433125 -2.4375 2.875 C-5.1326468 3.73262568 -5.1326468 3.73262568 -6 6 C-7.66666667 7.66666667 -9.33333333 9.33333333 -11 11 C-11.99 12.485 -11.99 12.485 -13 14 C-13.99 14 -14.98 14 -16 14 C-16.33 14.99 -16.66 15.98 -17 17 C-17.99 16.67 -18.98 16.34 -20 16 C-17.94367496 13.88948191 -15.88039798 11.78662837 -13.8125 9.6875 C-12.9452832 8.79514648 -12.9452832 8.79514648 -12.06054688 7.88476562 C-4.26387919 0 -4.26387919 0 0 0 Z " fill="#7A40F1" transform="translate(276,277)"/>
<path d="M0 0 C0.33 0 0.66 0 1 0 C1.33 10.23 1.66 20.46 2 31 C2.66 31 3.32 31 4 31 C2.25 34.875 2.25 34.875 0 36 C0 24.12 0 12.24 0 0 Z " fill="#199FEF" transform="translate(206,296)"/>
<path d="M0 0 C0.33 0 0.66 0 1 0 C1.04241723 2.33294775 1.04092937 4.66702567 1 7 C0.67 7.33 0.34 7.66 0 8 C-0.15873955 10.21687994 -0.25133837 12.43855298 -0.31640625 14.66015625 C-0.33718735 15.32462265 -0.35796844 15.98908905 -0.37937927 16.6736908 C-0.44493658 18.80318543 -0.50378785 20.93280668 -0.5625 23.0625 C-0.60567939 24.50326847 -0.64929349 25.94402399 -0.69335938 27.38476562 C-0.80062393 30.9230404 -0.90187371 34.46145869 -1 38 C-1.33 38 -1.66 38 -2 38 C-2.04957858 33.39186151 -2.08580385 28.78387963 -2.10986328 24.17553711 C-2.11989726 22.60910333 -2.13352754 21.04268817 -2.15087891 19.47631836 C-2.17524225 17.21984247 -2.18650916 14.96361506 -2.1953125 12.70703125 C-2.20563507 12.01100296 -2.21595764 11.31497467 -2.22659302 10.59785461 C-2.22750439 6.61415509 -1.7555827 3.58709891 0 0 Z " fill="#15BAF1" transform="translate(208,206)"/>
<path d="M0 0 C0.5534764 2.07553648 1 3.84365964 1 6 C-0.98260426 7.68732277 -2.9832342 9.35366057 -5 11 C-5.33 11.66 -5.66 12.32 -6 13 C-7.32 13 -8.64 13 -10 13 C-8.48446596 9.52224821 -6.4226544 7.0442016 -3.875 4.25 C-3.15054687 3.45078125 -2.42609375 2.6515625 -1.6796875 1.828125 C-0.84824219 0.92320312 -0.84824219 0.92320312 0 0 Z " fill="#14CBE0" transform="translate(261,142)"/>
<path d="M0 0 C0.33 0 0.66 0 1 0 C1 5.61 1 11.22 1 17 C0.34 16.67 -0.32 16.34 -1 16 C-1 12.7 -1 9.4 -1 6 C-2.32 7.32 -3.64 8.64 -5 10 C-5.99 9.67 -6.98 9.34 -8 9 C-7.50628906 8.51789063 -7.01257813 8.03578125 -6.50390625 7.5390625 C-5.86324219 6.90742188 -5.22257813 6.27578125 -4.5625 5.625 C-3.92441406 4.99851563 -3.28632813 4.37203125 -2.62890625 3.7265625 C-0.92117824 2.08276939 -0.92117824 2.08276939 0 0 Z " fill="#08E8FC" transform="translate(194,198)"/>
<path d="M0 0 C0.33 0.66 0.66 1.32 1 2 C0 5 0 5 -3 7 C-4.0064275 8.66279327 -5.00585407 10.32983484 -6 12 C-7.29579647 13.36984198 -8.61992749 14.7151049 -10 16 C-10.99 15.67 -11.98 15.34 -13 15 C-12.39671875 14.33613281 -11.7934375 13.67226562 -11.171875 12.98828125 C-10.37265625 12.10527344 -9.5734375 11.22226563 -8.75 10.3125 C-7.96109375 9.44238281 -7.1721875 8.57226562 -6.359375 7.67578125 C-4.15500436 5.17579137 -2.05866059 2.62054272 0 0 Z " fill="#19C4E0" transform="translate(246,159)"/>
<path d="M0 0 C1.65 0 3.3 0 5 0 C1.49925018 4.17443363 -1.97950843 8.3145494 -6 12 C-6.66 12 -7.32 12 -8 12 C-7.4409112 8.75728494 -6.5867822 7.06942576 -4 5 C-3.34 5 -2.68 5 -2 5 C-2 4.34 -2 3.68 -2 3 C-1.34 3 -0.68 3 0 3 C0 2.01 0 1.02 0 0 Z " fill="#1DACDC" transform="translate(181,352)"/>
<path d="M0 0 C0.66 0 1.32 0 2 0 C2 0.66 2 1.32 2 2 C2.66 2 3.32 2 4 2 C2.52278578 5.45201639 0.56205999 7.64961936 -2.125 10.25 C-2.84945313 10.95640625 -3.57390625 11.6628125 -4.3203125 12.390625 C-4.87460937 12.92171875 -5.42890625 13.4528125 -6 14 C-6.33 13.34 -6.66 12.68 -7 12 C-6.67 11.34 -6.34 10.68 -6 10 C-5.34 10 -4.68 10 -4 10 C-4 8.35 -4 6.7 -4 5 C-2.68 5.33 -1.36 5.66 0 6 C-0.33 5.01 -0.66 4.02 -1 3 C-0.67 2.01 -0.34 1.02 0 0 Z " fill="#17B7E5" transform="translate(288,239)"/>
<path d="M0 0 C4.75460529 0.29716283 7.53631832 2.6795361 11.1328125 5.52734375 C12.69767934 6.76155881 14.34171415 7.8944761 16 9 C7.6 8.01176471 7.6 8.01176471 4 6 C3.375 3.9375 3.375 3.9375 3 2 C2.01 1.67 1.02 1.34 0 1 C0 0.67 0 0.34 0 0 Z " fill="#382DB8" transform="translate(290,415)"/>
<path d="M0 0 C3.5625 1.3125 3.5625 1.3125 6.5625 5.3125 C2.6025 4.9825 -1.3575 4.6525 -5.4375 4.3125 C-4.7775 3.9825 -4.1175 3.6525 -3.4375 3.3125 C-3.4375 2.6525 -3.4375 1.9925 -3.4375 1.3125 C-4.0975 0.9825 -4.7575 0.6525 -5.4375 0.3125 C-3.4375 -0.6875 -3.4375 -0.6875 0 0 Z " fill="#2232A5" transform="translate(287.4375,271.6875)"/>
<path d="M0 0 C0 0.99 0 1.98 0 3 C0.61488281 3.03738281 1.22976563 3.07476562 1.86328125 3.11328125 C2.67152344 3.17902344 3.47976563 3.24476563 4.3125 3.3125 C5.11300781 3.37050781 5.91351563 3.42851562 6.73828125 3.48828125 C9 4 9 4 12 7 C6.72 6.67 1.44 6.34 -4 6 C-2 2 -2 2 0 0 Z " fill="#010622" transform="translate(272,263)"/>
<path d="M0 0 C0.33 0.66 0.66 1.32 1 2 C-0.375 4 -0.375 4 -2 6 C-2.66 6 -3.32 6 -4 6 C-4.2475 6.556875 -4.495 7.11375 -4.75 7.6875 C-8.44941427 14.5314164 -8.44941427 14.5314164 -12.1328125 15.64453125 C-12.74898438 15.76183594 -13.36515625 15.87914062 -14 16 C-9.40525596 10.60117576 -4.72323727 5.28666913 0 0 Z " fill="#00181D" transform="translate(347,181)"/>
<path d="M0 0 C0.99 0.66 1.98 1.32 3 2 C-0.3 5.63 -3.6 9.26 -7 13 C-7.33 12.01 -7.66 11.02 -8 10 C-7.34 10 -6.68 10 -6 10 C-6 8.35 -6 6.7 -6 5 C-5.34 5 -4.68 5 -4 5 C-2.61767557 3.37373596 -1.28062485 1.7074998 0 0 Z " fill="#19BEE4" transform="translate(305,223)"/>
<path d="M0 0 C1.12588014 0.95729916 2.2506715 1.91587895 3.375 2.875 C4.00148438 3.40867187 4.62796875 3.94234375 5.2734375 4.4921875 C6.55836651 5.61432007 7.79371975 6.79371975 9 8 C9 8.99 9 9.98 9 11 C8.01 11 7.02 11 6 11 C4.68359375 9.50390625 4.68359375 9.50390625 3.4375 7.5625 C1.69463071 4.76740279 1.69463071 4.76740279 -1 3 C-0.67 2.01 -0.34 1.02 0 0 Z " fill="#9B2DE3" transform="translate(423,409)"/>
<path d="M0 0 C0.33 0.66 0.66 1.32 1 2 C-3.44381694 6.58716587 -8.20228499 10.78762713 -13 15 C-13.66 14.67 -14.32 14.34 -15 14 C-10.18045285 9.08406191 -5.39294334 4.28669855 0 0 Z " fill="#000F23" transform="translate(152,385)"/>
<path d="M0 0 C0.99 0 1.98 0 3 0 C2.37606349 3.76119476 0.65226285 6.18960042 -1.5625 9.25 C-2.20316406 10.14203125 -2.84382813 11.0340625 -3.50390625 11.953125 C-4.24447266 12.96632812 -4.24447266 12.96632812 -5 14 C-5.33 13.01 -5.66 12.02 -6 11 C-6.66 10.67 -7.32 10.34 -8 10 C-6.68 10 -5.36 10 -4 10 C-4 9.01 -4 8.02 -4 7 C-3.34 7 -2.68 7 -2 7 C-1.855625 6.401875 -1.71125 5.80375 -1.5625 5.1875 C-1.1127561 3.43849596 -0.57107659 1.71322977 0 0 Z " fill="#17D6DE" transform="translate(393,120)"/>
<path d="M0 0 C1.65 0 3.3 0 5 0 C2.89851796 3.98175544 0.63094642 6.35039045 -3 9 C-3.33 7.35 -3.66 5.7 -4 4 C-2.68 3.67 -1.36 3.34 0 3 C0 2.01 0 1.02 0 0 Z " fill="#16ADE2" transform="translate(276,253)"/>
<path d="M0 0 C0.99 0.66 1.98 1.32 3 2 C3 3.66666667 3 5.33333333 3 7 C4.39585785 8.81476003 4.39585785 8.81476003 6 10 C5.67 10.66 5.34 11.32 5 12 C2.36 9.36 -0.28 6.72 -3 4 C-2.67 3.34 -2.34 2.68 -2 2 C-1.34 2 -0.68 2 0 2 C0 1.34 0 0.68 0 0 Z " fill="#2433A4" transform="translate(241,366)"/>
<path d="M0 0 C1.32 0.66 2.64 1.32 4 2 C4 2.66 4 3.32 4 4 C3.34 4 2.68 4 2 4 C1.67 5.32 1.34 6.64 1 8 C-0.32 7.67 -1.64 7.34 -3 7 C-2.67 6.67 -2.34 6.34 -2 6 C-2.66 5.34 -3.32 4.68 -4 4 C-2.68 3.67 -1.36 3.34 0 3 C0 2.01 0 1.02 0 0 Z " fill="#07C0F9" transform="translate(280,245)"/>
<path d="M0 0 C1.65 0.33 3.3 0.66 5 1 C4.04663979 2.31611677 3.08714226 3.62778961 2.125 4.9375 C1.59132813 5.66839844 1.05765625 6.39929688 0.5078125 7.15234375 C-1 9 -1 9 -3 10 C-3 8.02 -3 6.04 -3 4 C-2.01 4 -1.02 4 0 4 C0 2.68 0 1.36 0 0 Z " fill="#13C5E8" transform="translate(315,210)"/>
<path d="M0 0 C0.33 0.66 0.66 1.32 1 2 C-1.10979339 7.76676861 -3.69425273 12.66495886 -9 16 C-7.56691865 12.04093183 -5.66858051 8.71281819 -3.375 5.1875 C-2.74335938 4.21167969 -2.11171875 3.23585938 -1.4609375 2.23046875 C-0.73777344 1.12638672 -0.73777344 1.12638672 0 0 Z " fill="#001D26" transform="translate(405,107)"/>
<path d="M0 0 C0.99 0.33 1.98 0.66 3 1 C3 2.98 3 4.96 3 7 C3.99 7 4.98 7 6 7 C6.33 8.32 6.66 9.64 7 11 C2.82117329 8.43571997 -0.12505529 5.98069267 -3 2 C-2.01 2 -1.02 2 0 2 C0 1.34 0 0.68 0 0 Z " fill="#203198" transform="translate(231,358)"/>
<path d="M0 0 C1.15941038 3.47823115 0.70820884 5.45895578 0 9 C-0.99 8.67 -1.98 8.34 -3 8 C-5.14255793 8.38932856 -5.14255793 8.38932856 -7 9 C-6.02180976 7.68677212 -5.0424189 6.37443848 -4.0625 5.0625 C-3.51722656 4.33160156 -2.97195313 3.60070312 -2.41015625 2.84765625 C-1 1 -1 1 0 0 Z " fill="#16D3E3" transform="translate(278,123)"/>
<path d="M0 0 C0.99 0.33 1.98 0.66 3 1 C1.50902342 4.7952131 -0.75700849 6.61042731 -4 9 C-4.33 7.68 -4.66 6.36 -5 5 C-4.01 5.33 -3.02 5.66 -2 6 C-2.33 4.68 -2.66 3.36 -3 2 C-2.34 2 -1.68 2 -1 2 C-0.67 1.34 -0.34 0.68 0 0 Z " fill="#1C2AB2" transform="translate(247,298)"/>
<path d="M0 0 C1.32 0 2.64 0 4 0 C4 0.66 4 1.32 4 2 C4.66 2 5.32 2 6 2 C6 2.66 6 3.32 6 4 C6.66 4 7.32 4 8 4 C8.33 5.65 8.66 7.3 9 9 C7.87105124 8.06725891 6.74699124 7.12859878 5.625 6.1875 C4.99851562 5.66542969 4.37203125 5.14335937 3.7265625 4.60546875 C2 3 2 3 0 0 Z " fill="#232A8E" transform="translate(262,393)"/>
<path d="M0 0 C0 4.07300169 -1.58452534 5.77936711 -4 9 C-6.25 10.875 -6.25 10.875 -8 12 C-8.66 11.67 -9.32 11.34 -10 11 C-6.7 7.37 -3.4 3.74 0 0 Z " fill="#001022" transform="translate(283,251)"/>
<path d="M0 0 C0.66 0.99 1.32 1.98 2 3 C0.45244627 6.09510746 -2.08626556 7.25175933 -5 9 C-5.99 9 -6.98 9 -8 9 C-5.36 6.03 -2.72 3.06 0 0 Z " fill="#1ACBE1" transform="translate(270,132)"/>
<path d="M0 0 C0.66 0.33 1.32 0.66 2 1 C0.75482035 2.13033298 -0.49636652 3.25405036 -1.75 4.375 C-2.44609375 5.00148437 -3.1421875 5.62796875 -3.859375 6.2734375 C-5.84508688 7.87505183 -7.67954093 8.96520068 -10 10 C-8.5741914 6.54804233 -6.90253666 4.8985744 -3.875 2.75 C-3.15054688 2.22921875 -2.42609375 1.7084375 -1.6796875 1.171875 C-1.12539062 0.78515625 -0.57109375 0.3984375 0 0 Z " fill="#00BCF2" transform="translate(137,248)"/>
<path d="M0 0 C2.475 0.99 2.475 0.99 5 2 C3.02 4.97 3.02 4.97 1 8 C0.67 6.68 0.34 5.36 0 4 C-0.66 4 -1.32 4 -2 4 C-1.34 2.68 -0.68 1.36 0 0 Z " fill="#11CBEA" transform="translate(330,192)"/>
<path d="M0 0 C2.475 0.495 2.475 0.495 5 1 C5.33 1.99 5.66 2.98 6 4 C6.99 4.33 7.98 4.66 9 5 C9.33 6.65 9.66 8.3 10 10 C2.51708428 3.84965831 2.51708428 3.84965831 0 0 Z " fill="#1B0132" transform="translate(395,379)"/>
<path d="M0 0 C1.17539996 0.92652701 2.34010577 1.86663387 3.5 2.8125 C4.1496875 3.33457031 4.799375 3.85664063 5.46875 4.39453125 C7 6 7 6 7 9 C5 7.625 5 7.625 3 6 C3 5.34 3 4.68 3 4 C1.35 3.67 -0.3 3.34 -2 3 C-1.34 2.67 -0.68 2.34 0 2 C0 1.34 0 0.68 0 0 Z " fill="#882DD2" transform="translate(338,320)"/>
<path d="M0 0 C1.32 0.33 2.64 0.66 4 1 C3.09325024 1.98835723 2.17410978 2.96535481 1.25 3.9375 C0.73953125 4.48277344 0.2290625 5.02804687 -0.296875 5.58984375 C-2.19378076 7.16044692 -3.59701161 7.58731286 -6 8 C-6 7.34 -6 6.68 -6 6 C-4.34997172 4.64613064 -2.6825613 3.31321858 -1 2 C-0.67 1.34 -0.34 0.68 0 0 Z " fill="#1DA8F6" transform="translate(240,292)"/>
<path d="M0 0 C0.33 0.99 0.66 1.98 1 3 C-1.33333333 5.33333333 -3.66666667 7.66666667 -6 10 C-6.99 9.67 -7.98 9.34 -9 9 C-6.03 6.03 -3.06 3.06 0 0 Z " fill="#013DA3" transform="translate(253,282)"/>
<path d="M0 0 C3.26460973 1.80412643 4.88929795 2.83394693 7 6 C5.125 6.625 5.125 6.625 3 7 C2.34 6.34 1.68 5.68 1 5 C0.34 5 -0.32 5 -1 5 C-0.67 3.35 -0.34 1.7 0 0 Z " fill="#8438E1" transform="translate(297,279)"/>
<path d="M0 0 C0.33 0.66 0.66 1.32 1 2 C-1.56428003 6.17882671 -4.01930733 9.12505529 -8 12 C-8.66 11.67 -9.32 11.34 -10 11 C-9.52949219 10.54109375 -9.05898438 10.0821875 -8.57421875 9.609375 C-3.96631602 5.08450705 -3.96631602 5.08450705 0 0 Z " fill="#001425" transform="translate(294,239)"/>
<path d="M0 0 C0.99 0.33 1.98 0.66 3 1 C0.03 3.97 -2.94 6.94 -6 10 C-6.33 9.34 -6.66 8.68 -7 8 C-6.34 7.01 -5.68 6.02 -5 5 C-4.34 5 -3.68 5 -3 5 C-3 4.01 -3 3.02 -3 2 C-2.01 2 -1.02 2 0 2 C0 1.34 0 0.68 0 0 Z " fill="#001D1E" transform="translate(316,79)"/>
<path d="M0 0 C3.45201639 1.47721422 5.64961936 3.43794001 8.25 6.125 C8.95640625 6.84945313 9.6628125 7.57390625 10.390625 8.3203125 C11.18726563 9.15175781 11.18726563 9.15175781 12 10 C11.01 10.33 10.02 10.66 9 11 C7.49703315 9.35687553 5.99769719 7.71042916 4.5 6.0625 C3.6646875 5.14597656 2.829375 4.22945313 1.96875 3.28515625 C0 1 0 1 0 0 Z " fill="#261EB5" transform="translate(250,374)"/>
<path d="M0 0 C0 3.93169105 -1.39419615 5.16427228 -4 8 C-4.66 8 -5.32 8 -6 8 C-6 8.66 -6 9.32 -6 10 C-6.99 9.67 -7.98 9.34 -9 9 C-6.03 6.03 -3.06 3.06 0 0 Z " fill="#001222" transform="translate(169,368)"/>
<path d="M0 0 C2.375 0.25 2.375 0.25 5 1 C6.3125 3.0625 6.3125 3.0625 7 5 C5.35 5.66 3.7 6.32 2 7 C1.22227595 4.66682784 0.57584432 2.38564077 0 0 Z " fill="#04E7FA" transform="translate(360,152)"/>
<path d="M0 0 C1.14926266 0.95421808 2.29430541 1.91352045 3.4375 2.875 C4.07558594 3.40867187 4.71367187 3.94234375 5.37109375 4.4921875 C7 6 7 6 8 8 C7.34 8 6.68 8 6 8 C6 8.66 6 9.32 6 10 C5.34 10 4.68 10 4 10 C1.125 3.375 1.125 3.375 0 0 Z " fill="#2722BB" transform="translate(266,389)"/>
<path d="M0 0 C-1.44253657 3.36591866 -3.33264727 5.51047079 -6 8 C-6.33 6.68 -6.66 5.36 -7 4 C-2.25 0 -2.25 0 0 0 Z " fill="#1AD4DF" transform="translate(381,141)"/>
<path d="M0 0 C0.99 0.33 1.98 0.66 3 1 C0.36 3.97 -2.28 6.94 -5 10 C-5.33 8.68 -5.66 7.36 -6 6 C-4.6875 4.25 -4.6875 4.25 -3 3 C-2.34 3 -1.68 3 -1 3 C-0.67 2.01 -0.34 1.02 0 0 Z " fill="#01111A" transform="translate(262,138)"/>
<path d="M0 0 C-2.88019276 1.46652017 -5.79308515 2.82047874 -8.75 4.125 C-9.54921875 4.47820312 -10.3484375 4.83140625 -11.171875 5.1953125 C-11.77515625 5.46085937 -12.3784375 5.72640625 -13 6 C-13 5.01 -13 4.02 -13 3 C-8.79593898 -0.54717649 -5.23066851 -0.2659662 0 0 Z " fill="#001A1C" transform="translate(332,73)"/>
<path d="M0 0 C0.82638376 2.89234315 1 4.88742431 1 8 C-0.65 8.33 -2.3 8.66 -4 9 C-4.33 8.01 -4.66 7.02 -5 6 C-3.68 5.67 -2.36 5.34 -1 5 C-0.67 3.35 -0.34 1.7 0 0 Z " fill="#2532B8" transform="translate(222,339)"/>
<path d="M0 0 C0 3.19219704 -0.23605791 4.39608549 -2 7 C-4.625 8.25 -4.625 8.25 -7 9 C-6.02180976 7.68677212 -5.0424189 6.37443848 -4.0625 5.0625 C-3.51722656 4.33160156 -2.97195313 3.60070312 -2.41015625 2.84765625 C-1 1 -1 1 0 0 Z " fill="#00141D" transform="translate(375,149)"/>
<path d="M0 0 C0.99 0 1.98 0 3 0 C2.75 2.375 2.75 2.375 2 5 C-0.0625 6.3125 -0.0625 6.3125 -2 7 C-2 5.68 -2 4.36 -2 3 C-1.34 3 -0.68 3 0 3 C0 2.01 0 1.02 0 0 Z " fill="#10DFEF" transform="translate(372,146)"/>
<path d="M0 0 C0.33 0.66 0.66 1.32 1 2 C0.67 2.99 0.34 3.98 0 5 C-0.66 5 -1.32 5 -2 5 C-2 5.66 -2 6.32 -2 7 C-4 8.625 -4 8.625 -6 10 C-6.66 9.67 -7.32 9.34 -8 9 C-5.36 6.03 -2.72 3.06 0 0 Z " fill="#20CFD9" transform="translate(309,89)"/>
<path d="M0 0 C0.66 0 1.32 0 2 0 C3.6875 1.8125 3.6875 1.8125 5 4 C4.67 4.99 4.34 5.98 4 7 C3.01 7 2.02 7 1 7 C0.67 4.69 0.34 2.38 0 0 Z " fill="#17ADF2" transform="translate(152,375)"/>
<path d="M0 0 C5.875 4.625 5.875 4.625 7 8 C6.34 8 5.68 8 5 8 C5 7.34 5 6.68 5 6 C3.35 5.67 1.7 5.34 0 5 C0 3.35 0 1.7 0 0 Z " fill="#7E30CF" transform="translate(313,294)"/>
<path d="M0 0 C0.66 0 1.32 0 2 0 C0.60667426 3.36720387 -0.9789286 4.9859524 -4 7 C-4.66 6.67 -5.32 6.34 -6 6 C-4 4 -2 2 0 0 Z " fill="#00B9F1" transform="translate(124,258)"/>
<path d="M0 0 C0.99 0 1.98 0 3 0 C2.67 1.98 2.34 3.96 2 6 C0.35 6.33 -1.3 6.66 -3 7 C-3 6.34 -3 5.68 -3 5 C-2.34 5 -1.68 5 -1 5 C-0.67 3.35 -0.34 1.7 0 0 Z " fill="#05E7F5" transform="translate(310,89)"/>
<path d="M0 0 C0.66 0.33 1.32 0.66 2 1 C1.625 3.4375 1.625 3.4375 1 6 C0.01 6.495 0.01 6.495 -1 7 C-1.33 5.02 -1.66 3.04 -2 1 C-1.34 0.67 -0.68 0.34 0 0 Z " fill="#0EDBF0" transform="translate(360,160)"/>
<path d="M0 0 C0.33 0.66 0.66 1.32 1 2 C-0.125 5.0625 -0.125 5.0625 -2 8 C-4.6875 8.875 -4.6875 8.875 -7 9 C-6.02180976 7.68677212 -5.0424189 6.37443848 -4.0625 5.0625 C-3.51722656 4.33160156 -2.97195313 3.60070312 -2.41015625 2.84765625 C-1 1 -1 1 0 0 Z " fill="#1ACAD5" transform="translate(286,114)"/>
<path d="M0 0 C-0.66 0 -1.32 0 -2 0 C-2 0.66 -2 1.32 -2 2 C-3.98 2.66 -5.96 3.32 -8 4 C-8.66 3.34 -9.32 2.68 -10 2 C-3.375 -1.125 -3.375 -1.125 0 0 Z " fill="#07E8F7" transform="translate(332,76)"/>
<path d="M0 0 C0.33 0.99 0.66 1.98 1 3 C-0.65 4.32 -2.3 5.64 -4 7 C-4.66 6.67 -5.32 6.34 -6 6 C-6 5.34 -6 4.68 -6 4 C-4.03852126 2.61061923 -2.03833424 1.2739589 0 0 Z " fill="#01091B" transform="translate(114,421)"/>
<path d="M0 0 C2 1 2 1 2.9375 2.9375 C3.95345922 5.31971493 3.95345922 5.31971493 7 7 C5.35 7 3.7 7 2 7 C2 6.34 2 5.68 2 5 C1.34 5 0.68 5 0 5 C0 4.34 0 3.68 0 3 C-0.66 2.67 -1.32 2.34 -2 2 C-1.34 1.34 -0.68 0.68 0 0 Z " fill="#8B33F9" transform="translate(302,416)"/>
<path d="M0 0 C0.99 0.33 1.98 0.66 3 1 C-0.465 3.97 -0.465 3.97 -4 7 C-4 5.68 -4 4.36 -4 3 C-2.1875 1.1875 -2.1875 1.1875 0 0 Z " fill="#1B98CC" transform="translate(152,382)"/>
<path d="M0 0 C2.31 1.98 4.62 3.96 7 6 C6.34 6.66 5.68 7.32 5 8 C4.67 7.34 4.34 6.68 4 6 C1.98330173 4.86649466 1.98330173 4.86649466 0 4 C0 2.68 0 1.36 0 0 Z " fill="#8235D4" transform="translate(306,287)"/>
<path d="M0 0 C1.65 0 3.3 0 5 0 C3.35 1.98 1.7 3.96 0 6 C-1.125 2.25 -1.125 2.25 0 0 Z " fill="#1AAEE1" transform="translate(268,262)"/>
<path d="M0 0 C0.33 0 0.66 0 1 0 C1.36923077 6.4 1.36923077 6.4 -0.5 9.4375 C-0.995 9.953125 -1.49 10.46875 -2 11 C-1.85892253 9.54119891 -1.71197585 8.08296449 -1.5625 6.625 C-1.48128906 5.81289062 -1.40007812 5.00078125 -1.31640625 4.1640625 C-1 2 -1 2 0 0 Z " fill="#1DBBE5" transform="translate(208,206)"/>
<path d="M0 0 C2.9375 0.75 2.9375 0.75 6 2 C6.875 4.125 6.875 4.125 7 6 C6.01 5.67 5.02 5.34 4 5 C4 4.34 4 3.68 4 3 C2.68 3 1.36 3 0 3 C0 2.01 0 1.02 0 0 Z " fill="#04E5F6" transform="translate(352,161)"/>
<path d="M0 0 C0.99 0 1.98 0 3 0 C1.7508258 3.45925163 0.32472205 6.14693203 -2 9 C-2 7.35 -2 5.7 -2 4 C-1.34 4 -0.68 4 0 4 C0 2.68 0 1.36 0 0 Z " fill="#1BD9DC" transform="translate(401,108)"/>
<path d="M0 0 C0 3.90838866 -1.50567876 5.11594107 -4 8 C-4.99 7.67 -5.98 7.34 -7 7 C-4.69 4.69 -2.38 2.38 0 0 Z " fill="#1EDAE3" transform="translate(317,81)"/>
<path d="M0 0 C2.64752004 2.57784846 4.94432065 4.91648098 7 8 C4.03 7.505 4.03 7.505 1 7 C0.67 4.69 0.34 2.38 0 0 Z " fill="#8D2CD7" transform="translate(346,328)"/>
<path d="M0 0 C0.66 0 1.32 0 2 0 C2 0.66 2 1.32 2 2 C2.66 2 3.32 2 4 2 C2.25 5.875 2.25 5.875 0 7 C0 4.69 0 2.38 0 0 Z " fill="#27A2F6" transform="translate(206,325)"/>
<path d="M0 0 C3.83736322 0.95934081 4.59660228 1.23609263 7 4 C6.67 4.99 6.34 5.98 6 7 C4.02 4.69 2.04 2.38 0 0 Z " fill="#110029" transform="translate(333,314)"/>
<path d="M0 0 C0.99 0.33 1.98 0.66 3 1 C1.02 3.31 -0.96 5.62 -3 8 C-3.33 7.01 -3.66 6.02 -4 5 C-3.34 4.01 -2.68 3.02 -2 2 C-1.34 2 -0.68 2 0 2 C0 1.34 0 0.68 0 0 Z " fill="#000E1B" transform="translate(221,184)"/>
<path d="M0 0 C0.33 0 0.66 0 1 0 C1 2.31 1 4.62 1 7 C-0.32 7.33 -1.64 7.66 -3 8 C-1.125 2.25 -1.125 2.25 0 0 Z " fill="#001620" transform="translate(420,80)"/>
<path d="M0 0 C0.66 0.33 1.32 0.66 2 1 C-3.14285714 6.57142857 -3.14285714 6.57142857 -7 7 C-5.66667905 3.00003714 -3.5042173 2.16217663 0 0 Z " fill="#24C7D6" transform="translate(120,75)"/>
<path d="M0 0 C3.3 1.65 6.6 3.3 10 5 C6 6 6 6 3.75 5.0625 C3.1725 4.711875 2.595 4.36125 2 4 C2 3.34 2 2.68 2 2 C1.34 2 0.68 2 0 2 C0 1.34 0 0.68 0 0 Z " fill="#4229AC" transform="translate(296,418)"/>
<path d="M0 0 C0.66 0 1.32 0 2 0 C2 0.66 2 1.32 2 2 C2.99 2.33 3.98 2.66 5 3 C5 3.99 5 4.98 5 6 C3.68 5.67 2.36 5.34 1 5 C0.67 3.35 0.34 1.7 0 0 Z " fill="#11A5F7" transform="translate(128,398)"/>
<path d="M0 0 C0.99 0.99 1.98 1.98 3 3 C2.67 3.66 2.34 4.32 2 5 C1.34 5 0.68 5 0 5 C0 6.65 0 8.3 0 10 C-0.33 10 -0.66 10 -1 10 C-1.125 3.375 -1.125 3.375 0 0 Z " fill="#7441EF" transform="translate(223,329)"/>
<path d="M0 0 C0.66 0.33 1.32 0.66 2 1 C1.67 1.99 1.34 2.98 1 4 C-0.65 4.33 -2.3 4.66 -4 5 C-2.68 3.35 -1.36 1.7 0 0 Z " fill="#8930F9" transform="translate(269,282)"/>
<path d="M0 0 C0.99 0.33 1.98 0.66 3 1 C3 1.66 3 2.32 3 3 C2.030625 3.12375 1.06125 3.2475 0.0625 3.375 C-0.948125 3.58125 -1.95875 3.7875 -3 4 C-3.33 4.66 -3.66 5.32 -4 6 C-4 5.01 -4 4.02 -4 3 C-3.34 3 -2.68 3 -2 3 C-2 2.34 -2 1.68 -2 1 C-1.34 0.67 -0.68 0.34 0 0 Z " fill="#05C7FB" transform="translate(213,203)"/>
<path d="M0 0 C0.33 0.66 0.66 1.32 1 2 C0.3125 4.0625 0.3125 4.0625 -1 6 C-3.125 6.75 -3.125 6.75 -5 7 C-3.47793991 4.37098712 -2.15634036 2.15634036 0 0 Z " fill="#1BBFDA" transform="translate(232,175)"/>
<path d="M0 0 C0.99 0.33 1.98 0.66 3 1 C3 2.65 3 4.3 3 6 C2.01 6.495 2.01 6.495 1 7 C0.34 5.02 -0.32 3.04 -1 1 C-0.67 0.67 -0.34 0.34 0 0 Z " fill="#0FE7F2" transform="translate(396,112)"/>
</svg>
